<svg width="11" height="17" viewBox="0 0 11 17" fill="none" xmlns="http://www.w3.org/2000/svg">
<path d="M5.29392 0.0488911C5.0871 0.158573 4.06236 1.34 3.35099 2.2864C1.36419 4.93756 0.236031 7.51665 0.0260687 9.87011C-0.127486 11.6219 0.398986 13.1668 1.56161 14.3608C2.39519 15.2132 3.41053 15.7522 4.58883 15.9653C4.97115 16.0342 5.93321 16.0436 6.3124 15.9841C8.53424 15.6237 10.2891 14.0317 10.8407 11.8694C11.1541 10.6504 11.0005 9.00205 10.4208 7.30355C10.1325 6.45744 9.58091 5.26661 9.09518 4.44556C8.85075 4.03817 8.74733 3.94416 8.5311 3.94416C8.23966 3.94416 8.08924 4.10711 8.0485 4.4581C8.00463 4.87489 7.81347 5.15692 7.46249 5.32928C7.2776 5.42016 7.22432 5.4327 7.00183 5.42956C6.795 5.42956 6.71979 5.41389 6.57563 5.34495C6.37821 5.25094 6.18391 5.05664 6.0711 4.84668L5.99902 4.71193L5.98335 2.51203C5.96768 0.352866 5.96768 0.312127 5.90187 0.227516C5.74519 0.0144197 5.49762 -0.0576569 5.29392 0.0488911ZM8.41515 8.00552C8.46216 8.03999 8.5311 8.10893 8.56557 8.15594C8.62825 8.23741 8.63138 8.28755 8.64078 9.35303C8.65019 10.3997 8.64705 10.4718 8.58751 10.6034C8.43709 10.9419 7.96702 10.9669 7.7696 10.6441C7.71319 10.5533 7.70692 10.4843 7.70692 10.0393V9.53793L6.52549 10.7162C5.87367 11.3649 5.30646 11.9196 5.26259 11.9478C5.16231 12.0136 4.8928 12.0136 4.79252 11.9478C4.74865 11.9196 4.46348 11.6469 4.1595 11.3461L3.60483 10.7946L3.1849 11.2051C2.74304 11.6407 2.6647 11.6877 2.43907 11.6407C2.14763 11.5843 1.98467 11.2521 2.11629 10.9857C2.18523 10.8478 3.24444 9.78236 3.3886 9.70715C3.52962 9.63507 3.66437 9.63194 3.79912 9.69775C3.85553 9.72595 4.15323 10.0017 4.46348 10.3088L5.02755 10.8698L6.03036 9.86697L7.03316 8.86417H6.53803C6.00529 8.86417 5.94261 8.8485 5.79846 8.69494C5.68251 8.57273 5.66998 8.29382 5.77026 8.14654C5.80786 8.08699 5.89247 8.01492 5.95201 7.98045C6.05543 7.92717 6.13691 7.92404 7.19612 7.93031C8.28353 7.93971 8.33368 7.94284 8.41515 8.00552Z" fill="#737DFE"/>
</svg>
