<svg width="14" height="12" viewBox="0 0 14 12" fill="none" xmlns="http://www.w3.org/2000/svg">
<path d="M3.33208 0.0169888C2.48918 0.122683 1.78367 0.468829 1.1865 1.07128C0.650107 1.61032 0.327742 2.18107 0.142778 2.92356C-0.184872 4.21038 0.0529384 5.47871 0.840356 6.6704C1.34504 7.43404 1.9977 8.13426 3.19468 9.20176C3.95567 9.88084 6.27829 11.8626 6.39191 11.9287C6.49761 11.9921 6.53724 12 6.76184 12C6.98644 12 7.02607 11.9921 7.13177 11.9287C7.24539 11.8626 9.57329 9.8782 10.329 9.20176C11.5313 8.12897 12.1786 7.43139 12.6833 6.6704C13.4707 5.47871 13.7086 4.21038 13.3809 2.92356C13.1959 2.18107 12.8736 1.61032 12.3372 1.07128C11.8034 0.534887 11.2327 0.225734 10.4849 0.067193C10.1097 -0.0120764 9.41739 -0.0200033 9.08974 0.0539818C8.17549 0.252157 7.47527 0.709282 6.83582 1.52312L6.76184 1.6156L6.6905 1.52312C6.05898 0.725136 5.36933 0.268011 4.48943 0.067193C4.22784 0.00642014 3.62538 -0.0200033 3.33208 0.0169888ZM4.21462 0.822903C4.96505 0.95502 5.61242 1.38836 6.12504 2.10444C6.21223 2.22863 6.32057 2.3766 6.36285 2.43737C6.55838 2.71218 6.9653 2.71218 7.16083 2.43737C7.20311 2.3766 7.31145 2.22863 7.39864 2.10444C8.09886 1.12677 9.07389 0.667005 10.1361 0.812333C11.3146 0.973516 12.2341 1.79793 12.5856 3.01076C12.863 3.96993 12.7415 4.97666 12.2368 5.88298C11.814 6.64134 11.1085 7.43668 9.8798 8.53853C9.28527 9.06965 6.78562 11.2205 6.76184 11.2205C6.73542 11.2205 4.24633 9.07757 3.64388 8.53853C1.75461 6.8448 1.00947 5.78786 0.829786 4.5486C0.713523 3.74797 0.879991 2.88657 1.28427 2.20749C1.89201 1.1849 3.07578 0.624727 4.21462 0.822903Z" fill="#F14658"/>
<path d="M4 0.5L5 1L6.5 2L7 2.5L8 1L9.5 0.5L11 1L12.5 1.5L13 3L12.5 5.5L11 8L8.5 10L6.5 11.5L5 10L2.5 8L1 5.5L0.5 3.5L1 2L2 1L3 0.5H4Z" fill="#F14658"/>
</svg>
