<svg width="7" height="12" viewBox="0 0 7 12" fill="none" xmlns="http://www.w3.org/2000/svg">
<path d="M0.218109 0.0545044C0.0717465 0.14347 0.0229589 0.220957 0.0114794 0.381669L0 0.530902L0.852349 2.05193C1.32014 2.88706 1.75062 3.67627 1.81088 3.80254C2.01464 4.23589 2.02038 4.27607 2.03186 5.51872L2.04621 6.63223L1.56407 9.26963C1.17377 11.4278 1.09342 11.9185 1.12212 11.9529C1.1709 12.0132 2.07204 12.0161 2.13231 11.9587C2.1524 11.9357 2.43364 10.871 2.75794 9.59105C3.07936 8.30822 3.352 7.26072 3.36061 7.26072C3.36922 7.26072 3.64185 8.30822 3.96328 9.59105C4.28757 10.871 4.56882 11.9386 4.58891 11.9587C4.64631 12.0161 5.55031 12.0132 5.5991 11.9529C5.62493 11.9214 5.53596 11.3818 5.15427 9.27824L4.67787 6.6437L4.68935 5.52446C4.70083 4.29042 4.70657 4.24163 4.89598 3.83124C4.94477 3.71932 5.35516 2.97028 5.80573 2.16672C6.2563 1.36029 6.6466 0.660046 6.6753 0.605517C6.81018 0.338621 6.60929 -2.28882e-05 6.31656 -2.28882e-05C6.09271 -2.28882e-05 6.08698 0.00571728 5.16862 1.41769C4.69509 2.14376 4.24452 2.8067 4.16704 2.88706C3.75091 3.32328 3.00761 3.33763 2.58 2.91863C2.51113 2.85262 2.14092 2.31308 1.75635 1.72189C0.645719 0.0200663 0.700246 0.0975523 0.594061 0.0458946C0.464917 -0.0143719 0.324294 -0.0115023 0.218109 0.0545044Z" fill="#D6FF7F"/>
<path d="M3.02481 0.356295C2.72635 0.45387 2.43936 0.709288 2.30448 0.999144C2.2356 1.14264 2.22699 1.19716 2.22699 1.46406C2.22699 1.74818 2.23273 1.77975 2.3217 1.95768C2.43936 2.19875 2.68904 2.43694 2.9215 2.52878C3.05638 2.58331 3.14248 2.59479 3.37493 2.59766C3.64183 2.59766 3.67627 2.59192 3.85133 2.50582C4.08092 2.39103 4.30764 2.16144 4.41669 1.93185C4.48557 1.78262 4.49418 1.73096 4.49418 1.46406C4.49418 1.18281 4.48844 1.14838 4.40234 0.973315C4.28468 0.732247 4.0924 0.542836 3.85707 0.425172C3.69349 0.344815 3.63322 0.330466 3.4065 0.324726C3.24292 0.318987 3.09943 0.330466 3.02481 0.356295Z" fill="#D6FF7F"/>
</svg>
