<svg width="10" height="12" viewBox="0 0 10 12" fill="none" xmlns="http://www.w3.org/2000/svg">
<path d="M1.94846 0.0343747C1.49611 0.128125 1.13283 0.45625 0.945333 0.939062C0.80002 1.31406 0.732052 1.69609 0.685177 2.39922C0.65002 2.92891 0.708614 3.41641 0.900802 4.20625C1.13049 5.16016 1.45627 5.92188 1.74924 6.20781L1.83127 6.28516L2.50861 6.12109C2.87893 6.02969 3.32658 5.92188 3.50002 5.88203C3.98049 5.77422 3.98049 5.77422 4.09299 5.38984C4.3344 4.56953 4.39533 3.31562 4.23596 2.50703C4.12815 1.97031 3.98986 1.53437 3.80705 1.15937C3.5258 0.585156 3.16252 0.214843 2.73361 0.0671873C2.55315 0.0062499 2.16174 -0.0125003 1.94846 0.0343747Z" fill="#FAD6A6"/>
<path d="M7.47035 2.81055C7.21488 2.84336 6.90316 3.0168 6.65941 3.26289C6.27972 3.64961 5.98676 4.2918 5.79926 5.14961C5.69379 5.63008 5.67035 5.92305 5.68675 6.56055C5.7055 7.3082 5.77113 7.76055 5.9305 8.25742C6.02426 8.55273 6.03363 8.55977 6.34066 8.63711C6.46019 8.66523 6.91957 8.77773 7.36254 8.88555L8.1641 9.08008L8.24847 8.99805C8.61176 8.64883 9.01722 7.57539 9.22582 6.4082C9.34769 5.72617 9.35472 5.30898 9.25394 4.54492C9.12738 3.58398 8.74769 3.00977 8.13597 2.85039C7.97191 2.8082 7.65082 2.78945 7.47035 2.81055Z" fill="#FAD6A6"/>
<path d="M3.83986 6.27202C3.7508 6.30483 3.30314 6.44077 2.84611 6.57671C2.38908 6.7103 2.01174 6.8228 2.00939 6.82749C1.99533 6.84155 2.07502 7.38296 2.11955 7.57046C2.29767 8.34155 2.66096 8.88765 3.14142 9.1103C3.53283 9.29077 3.97814 9.20405 4.28283 8.8853C4.79846 8.34155 4.75627 7.39233 4.17502 6.41733C4.10705 6.30483 4.04142 6.21343 4.02736 6.21343C4.01564 6.21343 3.93127 6.24155 3.83986 6.27202Z" fill="#FAD6A6"/>
<path d="M5.86487 9.14754C5.6305 9.51082 5.42894 10.0288 5.37269 10.4038C5.25784 11.196 5.64691 11.871 6.28441 11.9811C6.83284 12.0749 7.40003 11.6554 7.70472 10.9288C7.82659 10.6382 7.94378 10.1343 7.98362 9.73582L7.99769 9.61864L7.28987 9.41004C6.90081 9.2952 6.44144 9.15926 6.27034 9.10301L5.95628 9.00457L5.86487 9.14754Z" fill="#FAD6A6"/>
</svg>
