<svg width="25" height="24" viewBox="0 0 25 24" fill="none" xmlns="http://www.w3.org/2000/svg">
<path d="M11.6478 0.260859C9.91303 1.04347 10.4217 3.52173 12.3261 3.52173C14.2304 3.52173 14.7391 1.04347 13.0043 0.260859C12.7043 0.117381 12.4043 -1.04904e-05 12.3261 -1.04904e-05C12.2609 -1.04904e-05 11.9478 0.117381 11.6478 0.260859Z" fill="white"/>
<path d="M6.313 5.39995C5.68691 5.67386 5.34778 6.20864 5.34778 6.87386C5.34778 7.94343 6.013 8.60864 7.06952 8.60864C7.78691 8.60864 8.37387 8.25647 8.66082 7.63038C8.96082 6.99125 8.84343 6.37821 8.30865 5.77821C7.96952 5.41299 7.76082 5.30864 7.3043 5.26951C6.96517 5.23038 6.54778 5.2956 6.313 5.39995Z" fill="white"/>
<path d="M11.5174 5.41299C10.6304 5.79125 10.3043 7.00429 10.8652 7.83908C11.2304 8.3869 11.6478 8.60864 12.3261 8.60864C13.0043 8.60864 13.4217 8.3869 13.787 7.83908C14.7652 6.37821 13.1739 4.68256 11.5174 5.41299Z" fill="white"/>
<path d="M16.8782 5.34777C16.7347 5.39995 16.4608 5.63473 16.2652 5.85647C15.3 7.01734 16.0695 8.60864 17.5826 8.60864C18.6391 8.60864 19.3043 7.94343 19.3043 6.87386C19.3043 5.69995 18.013 4.89125 16.8782 5.34777Z" fill="white"/>
<path d="M1.04348 10.5392C0.482609 10.8131 0 11.5174 0 12.0522C0 12.8609 0.717391 13.6435 1.5913 13.774C2.17826 13.8783 3.05217 13.4348 3.32609 12.9131C3.78261 12.0392 3.3913 10.8522 2.54348 10.487C1.95652 10.2522 1.60435 10.2522 1.04348 10.5392Z" fill="white"/>
<path d="M6.39133 10.4738C5.46524 10.7999 5.04785 12.1043 5.59568 12.9782C5.72611 13.1999 6.06524 13.4869 6.36524 13.6173C7.06959 13.9434 7.73481 13.813 8.29568 13.2521C9.62611 11.9217 8.19133 9.82166 6.39133 10.4738Z" fill="white"/>
<path d="M11.5174 10.5783C10.1218 11.2697 10.3435 13.2523 11.8826 13.7088C13.8261 14.2957 14.9609 11.387 13.1218 10.5523C12.4304 10.2392 12.1826 10.2392 11.5174 10.5783Z" fill="white"/>
<path d="M16.8782 10.4869C15.7043 11.0217 15.4695 12.5348 16.4478 13.3565C17.2565 14.0348 18.5347 13.8522 19.0565 12.9782C19.513 12.2348 19.2391 10.9565 18.5478 10.5782C18.1043 10.3435 17.2956 10.2913 16.8782 10.4869Z" fill="white"/>
<path d="M22.0826 10.487C21.2478 10.8653 20.8826 12.0522 21.3261 12.9131C21.6 13.4348 22.4739 13.8783 23.0608 13.774C23.9217 13.6435 24.6521 12.8609 24.6521 12.0653C24.6521 11.5957 24.2608 10.9174 23.8174 10.6305C23.3608 10.3305 22.5782 10.2653 22.0826 10.487Z" fill="white"/>
<path d="M6.58692 15.5348C4.68257 16.1087 5.09996 18.9131 7.08257 18.9131C8.00866 18.9131 8.94779 17.8696 8.81735 16.9696C8.66083 15.9261 7.59126 15.2348 6.58692 15.5348Z" fill="white"/>
<path d="M11.8957 15.5348C10.787 15.7696 10.2261 17.087 10.8261 18.0653C11.7913 19.6305 14.2565 18.8087 14.0478 16.9957C13.9304 15.9653 12.9652 15.3 11.8957 15.5348Z" fill="white"/>
<path d="M17.0217 15.5869C15.5999 16.0825 15.4043 17.7651 16.6825 18.6129C17.8043 19.3695 19.3043 18.5608 19.3043 17.2173C19.3043 15.9782 18.1956 15.1825 17.0217 15.5869Z" fill="white"/>
<path d="M11.387 20.8696C9.91309 21.7696 10.5783 24 12.3261 24C13.2914 24 14.087 23.2304 14.087 22.3043C14.087 20.987 12.5348 20.1652 11.387 20.8696Z" fill="white"/>
</svg>
