<svg width="19" height="18" viewBox="0 0 19 18" fill="none" xmlns="http://www.w3.org/2000/svg">
<path d="M10.4789 0.24889C11.7873 0.373085 12.7609 0.649076 13.8622 1.20796C15.1672 1.87378 16.3375 2.92254 17.1937 4.1921C17.3387 4.40944 17.5873 4.85103 17.7461 5.17531C18.3261 6.34827 18.6023 7.45568 18.6506 8.76319C18.7024 10.2328 18.3986 11.6335 17.7426 12.9513C17.2835 13.8794 16.807 14.5348 16.0579 15.2869C15.2949 16.0459 14.6355 16.5185 13.7068 16.9739C13.0578 17.2913 12.6401 17.4465 11.9807 17.6121C10.2545 18.0468 8.52141 17.964 6.83666 17.3672C6.32226 17.1843 5.43155 16.7393 4.97239 16.4323C3.71229 15.5939 2.66968 14.4382 1.98266 13.11C1.35778 11.9095 1.04707 10.7158 0.995289 9.34967C0.943502 7.88002 1.24731 6.47937 1.90326 5.16152C2.33135 4.29905 2.81122 3.61942 3.48443 2.92599C4.23014 2.15322 4.96204 1.62194 5.93905 1.13896C6.96094 0.635277 7.91379 0.362736 9.04616 0.259239C9.3983 0.228191 10.1958 0.221291 10.4789 0.24889ZM12.3949 5.65485C12.0497 5.76524 11.6492 6.02398 11.411 6.28963C11.3144 6.39657 11.1625 6.62426 11.0796 6.79676C10.945 7.0624 10.9242 7.1314 10.938 7.26594C10.9657 7.56608 11.2073 7.76962 11.4973 7.73857C11.7148 7.71097 11.8149 7.62473 11.9634 7.33149C12.1464 6.9658 12.3984 6.73811 12.7298 6.63806C13.3271 6.45522 13.9071 6.70706 14.1902 7.26939C14.2592 7.40738 14.3421 7.54883 14.3731 7.58333C14.5768 7.80757 14.9152 7.79722 15.1361 7.55918C15.2017 7.49018 15.2259 7.42118 15.2362 7.26939C15.2466 7.09345 15.2328 7.0417 15.1016 6.77951C14.8116 6.19648 14.2143 5.73419 13.5687 5.59275C13.2235 5.51685 12.7471 5.541 12.3949 5.65485ZM5.92179 5.62725C5.56274 5.73419 5.26584 5.91359 4.97239 6.21028C4.68239 6.49662 4.4718 6.83816 4.40966 7.1107C4.33716 7.44533 4.57537 7.74547 4.9137 7.74547C5.12084 7.74547 5.26239 7.62818 5.43155 7.31424C5.61453 6.9727 5.74227 6.83816 6.015 6.70361C6.29119 6.56907 6.58809 6.54147 6.86773 6.62081C7.24404 6.73121 7.48915 6.9451 7.68249 7.33839C7.82403 7.62473 7.92415 7.71097 8.1382 7.73512C8.4351 7.76962 8.67676 7.57643 8.71128 7.27974C8.72509 7.15209 8.70438 7.07965 8.56974 6.80711C8.47998 6.62771 8.33153 6.40002 8.23486 6.28963C7.94141 5.96189 7.47189 5.6928 7.01273 5.58585C6.75035 5.5272 6.18762 5.5479 5.92179 5.62725ZM12.6884 11.2126C12.6332 11.2402 12.5227 11.3609 12.4398 11.4817C11.4179 12.9927 9.41902 13.3584 7.97593 12.2959C7.74463 12.1268 7.38213 11.7439 7.20606 11.4817C7.0369 11.2298 6.92297 11.1609 6.68476 11.1609C6.55012 11.1609 6.49143 11.1816 6.40512 11.2505C6.15655 11.461 6.13238 11.6956 6.32571 12.0164C6.63642 12.527 7.19916 13.0652 7.75153 13.3826C9.26366 14.2485 11.0761 14.1001 12.4433 13.0031C12.9439 12.5995 13.4479 11.9371 13.4479 11.6818C13.4479 11.2954 13.0267 11.0367 12.6884 11.2126Z" fill="url(#paint0_linear_559_97)"/>
<defs>
<linearGradient id="paint0_linear_559_97" x1="-35.8437" y1="54.193" x2="47.594" y2="-32.8044" gradientUnits="userSpaceOnUse">
<stop stop-color="#D6FF7F"/>
<stop offset="1" stop-color="#00B3CC"/>
</linearGradient>
</defs>
</svg>
