<svg width="16" height="12" viewBox="0 0 16 12" fill="none" xmlns="http://www.w3.org/2000/svg">
<path d="M12.2778 5.31497C13.2131 5.31497 13.9714 4.55671 13.9714 3.62135C13.9714 2.68599 13.2131 1.92773 12.2778 1.92773C11.3424 1.92773 10.5842 2.68599 10.5842 3.62135C10.5842 4.55671 11.3424 5.31497 12.2778 5.31497Z" fill="url(#paint0_linear_574_8035)"/>
<path d="M8.89049 9.05295C8.87458 8.59535 8.95098 8.13923 9.11512 7.71178C9.27926 7.28433 9.52779 6.89431 9.84589 6.56497C10.164 6.23562 10.5451 5.97369 10.9666 5.7948C11.3881 5.61591 11.8413 5.52372 12.2992 5.52372C12.7571 5.52372 13.2103 5.61591 13.6318 5.7948C14.0532 5.97369 14.4344 6.23562 14.7525 6.56497C15.0706 6.89431 15.3191 7.28433 15.4833 7.71178C15.6474 8.13923 15.7238 8.59535 15.7079 9.05295C15.7079 9.9227 12.3012 10.0732 12.3012 10.0732C12.3012 10.0732 8.89049 10.0656 8.89049 9.05295Z" fill="url(#paint1_linear_574_8035)"/>
<path d="M3.3893 5.314C4.32466 5.314 5.08292 4.55574 5.08292 3.62038C5.08292 2.68502 4.32466 1.92676 3.3893 1.92676C2.45394 1.92676 1.69568 2.68502 1.69568 3.62038C1.69568 4.55574 2.45394 5.314 3.3893 5.314Z" fill="url(#paint2_linear_574_8035)"/>
<path d="M0.00205834 9.05198C-0.0138462 8.59437 0.0625499 8.13825 0.226692 7.7108C0.390835 7.28336 0.639362 6.89333 0.95746 6.56399C1.27556 6.23464 1.65671 5.97272 2.0782 5.79383C2.49969 5.61494 2.95288 5.52274 3.41076 5.52274C3.86864 5.52274 4.32184 5.61494 4.74332 5.79383C5.16481 5.97272 5.54597 6.23464 5.86406 6.56399C6.18216 6.89333 6.43069 7.28336 6.59483 7.7108C6.75897 8.13825 6.83537 8.59437 6.81947 9.05198C6.81947 9.92172 3.41282 10.0723 3.41282 10.0723C3.41282 10.0723 0.00205834 10.0646 0.00205834 9.05198Z" fill="url(#paint3_linear_574_8035)"/>
<path d="M7.79898 4.9903C9.17701 4.9903 10.2941 3.87318 10.2941 2.49515C10.2941 1.11712 9.17701 0 7.79898 0C6.42095 0 5.30383 1.11712 5.30383 2.49515C5.30383 3.87318 6.42095 4.9903 7.79898 4.9903Z" fill="url(#paint4_linear_574_8035)"/>
<path d="M2.80877 10.4969C2.80158 9.83287 2.92616 9.174 3.17531 8.55843C3.42445 7.94286 3.79321 7.38282 4.26024 6.91071C4.72726 6.4386 5.28328 6.0638 5.89612 5.80801C6.50896 5.55222 7.16645 5.42052 7.83052 5.42052C8.4946 5.42052 9.15209 5.55222 9.76493 5.80801C10.3778 6.0638 10.9338 6.4386 11.4008 6.91071C11.8678 7.38282 12.2366 7.94286 12.4857 8.55843C12.7349 9.174 12.8595 9.83287 12.8523 10.4969C12.8523 11.7777 7.83082 12 7.83082 12C7.83082 12 2.80877 11.9888 2.80877 10.4969Z" fill="url(#paint5_linear_574_8035)"/>
<defs>
<linearGradient id="paint0_linear_574_8035" x1="12.2778" y1="1.92773" x2="12.2778" y2="5.31497" gradientUnits="userSpaceOnUse">
<stop stop-color="#FAD6A6"/>
<stop offset="1" stop-color="#F06966"/>
</linearGradient>
<linearGradient id="paint1_linear_574_8035" x1="8.88843" y1="7.79848" x2="15.71" y2="7.79848" gradientUnits="userSpaceOnUse">
<stop stop-color="#FAD6A6"/>
<stop offset="1" stop-color="#F06966"/>
</linearGradient>
<linearGradient id="paint2_linear_574_8035" x1="3.3893" y1="1.92676" x2="3.3893" y2="5.314" gradientUnits="userSpaceOnUse">
<stop stop-color="#FAD6A6"/>
<stop offset="1" stop-color="#F06966"/>
</linearGradient>
<linearGradient id="paint3_linear_574_8035" x1="0" y1="7.7975" x2="6.82152" y2="7.7975" gradientUnits="userSpaceOnUse">
<stop stop-color="#FAD6A6"/>
<stop offset="1" stop-color="#F06966"/>
</linearGradient>
<linearGradient id="paint4_linear_574_8035" x1="7.79898" y1="0" x2="7.79898" y2="4.9903" gradientUnits="userSpaceOnUse">
<stop stop-color="#FAD6A6"/>
<stop offset="1" stop-color="#F06966"/>
</linearGradient>
<linearGradient id="paint5_linear_574_8035" x1="2.80847" y1="8.71026" x2="12.8526" y2="8.71026" gradientUnits="userSpaceOnUse">
<stop stop-color="#FAD6A6"/>
<stop offset="1" stop-color="#F06966"/>
</linearGradient>
</defs>
</svg>
