<svg width="24" height="24" viewBox="0 0 24 24" fill="none" xmlns="http://www.w3.org/2000/svg">
<path d="M17.1205 0.0542412C16.3277 0.20435 15.4834 0.565545 14.8313 1.03463C14.6015 1.2035 13.5601 2.20735 11.9605 3.81162L9.4509 6.32592L9.68544 6.29309C10.042 6.24149 11.1208 6.25556 11.5243 6.31654C11.9887 6.38691 12.5234 6.51825 12.9503 6.67305L13.288 6.79501L13.7618 6.33062C14.0198 6.07731 14.7469 5.3643 15.3755 4.7451C15.9993 4.12591 16.6232 3.54893 16.7593 3.4645C17.1486 3.22057 17.6599 3.07985 18.1665 3.07985C18.9499 3.07985 19.5879 3.34254 20.1179 3.87729C20.6996 4.46834 20.9435 5.09692 20.9107 5.94127C20.8872 6.48541 20.7981 6.7997 20.5354 7.25002C20.3196 7.6206 15.2816 12.6586 14.9111 12.8744C14.4654 13.1371 14.1465 13.2262 13.6023 13.2496C12.8049 13.2825 12.2983 13.1042 11.6322 12.5554C11.1631 12.166 11.0599 12.1191 10.6424 12.0957C10.0279 12.0582 9.89184 12.1285 9.12254 12.8884L8.46582 13.5311L8.69567 13.8641C9.22574 14.6428 10.2624 15.4966 11.1584 15.8906C11.8761 16.2049 12.3827 16.3175 13.274 16.3409C14.4185 16.3784 15.1784 16.219 16.0838 15.7592C16.8343 15.3746 17.0923 15.1447 20.0147 12.2176C22.4352 9.78778 22.8715 9.32808 23.106 8.96688C23.4344 8.46496 23.6924 7.8786 23.8612 7.2641C23.9785 6.84192 23.9879 6.73872 23.9879 5.84746C23.9926 4.78732 23.941 4.47773 23.6408 3.70373C22.9934 2.01971 21.3985 0.607763 19.6207 0.138676C19.2267 0.0354786 19.039 0.0167141 18.3166 0.00264168C17.7209 -0.00674057 17.3691 0.00733185 17.1205 0.0542412Z" fill="url(#paint0_linear_559_1450)"/>
<path d="M9.4978 7.69576C8.73319 7.84587 8.02018 8.12732 7.37753 8.54481C7.02571 8.77466 6.54725 9.22967 4.07047 11.7018C1.72504 14.0519 1.13399 14.6664 0.936972 14.9713C0.481959 15.6796 0.200507 16.3832 0.0597811 17.176C-0.0481088 17.814 -0.00589103 18.996 0.153598 19.5918C0.693048 21.637 2.36299 23.3116 4.39414 23.8464C5.00395 24.0059 6.18136 24.0481 6.82401 23.9402C7.66367 23.7901 8.50333 23.4383 9.18351 22.9504C9.41336 22.7816 10.4547 21.7777 12.0543 20.1735L14.5639 17.6592L14.3294 17.692C13.9729 17.7436 12.894 17.7295 12.4906 17.6685C12.0215 17.5982 11.4727 17.4621 11.0786 17.312C10.9097 17.251 10.7549 17.2041 10.7362 17.2088C10.7221 17.2182 9.98565 17.9312 9.09907 18.7943C8.21719 19.6575 7.38691 20.4361 7.25557 20.5206C7.11953 20.605 6.83808 20.727 6.62699 20.7926C6.28456 20.9005 6.18136 20.9146 5.73573 20.8958C5.37453 20.8818 5.14937 20.8442 4.95235 20.7739C4.15021 20.4784 3.53102 19.8639 3.22142 19.0476C3.13699 18.8131 3.11822 18.6771 3.11822 18.1611C3.11822 17.4856 3.1792 17.251 3.47942 16.7351C3.6952 16.3645 8.6253 11.4203 9.04747 11.1529C9.48842 10.8715 9.99034 10.7261 10.5157 10.7261C11.2522 10.7261 11.7588 10.9184 12.3827 11.4297C12.8518 11.819 12.955 11.8659 13.3725 11.8894C13.987 11.9269 14.123 11.8566 14.8923 11.0966L15.549 10.454L15.3192 10.1209C14.7891 9.34225 13.7524 8.48852 12.8565 8.09448C12.1059 7.76143 11.6415 7.66762 10.6705 7.64885C10.0935 7.63947 9.72296 7.65354 9.4978 7.69576Z" fill="url(#paint1_linear_559_1450)"/>
<defs>
<linearGradient id="paint0_linear_559_1450" x1="26.9077" y1="21.4544" x2="4.99449" y2="-2.2922" gradientUnits="userSpaceOnUse">
<stop stop-color="#2F80ED"/>
<stop offset="1" stop-color="#B2FFDA"/>
</linearGradient>
<linearGradient id="paint1_linear_559_1450" x1="18.4736" y1="29.1106" x2="-3.44767" y2="5.3256" gradientUnits="userSpaceOnUse">
<stop stop-color="#2F80ED"/>
<stop offset="1" stop-color="#B2FFDA"/>
</linearGradient>
</defs>
</svg>
