<svg width="37" height="37" viewBox="0 0 37 37" fill="none" xmlns="http://www.w3.org/2000/svg">
<g clip-path="url(#clip0_503_98)">
<path d="M18.475 0.603281C18.4315 0.657614 18.3952 0.716826 18.3671 0.779569C18.3379 0.84564 18.2969 0.906454 18.2458 0.959298C18.189 1.01216 18.1393 1.07136 18.0978 1.13559C17.8369 1.46341 17.5494 1.77151 17.2377 2.05709C17.1625 2.11891 16.9696 2.28604 16.8083 2.43142C16.5353 2.67524 15.6995 3.33805 15.4848 3.4777L15.3926 3.53723L15.2252 3.46511C15.0241 3.39118 14.8187 3.32774 14.6102 3.27508C14.3949 3.22052 14.1827 3.15557 13.9745 3.08048C13.6739 2.95842 13.4043 2.77736 13.1836 2.54933C13.1169 2.46805 13.0623 2.43485 13.0247 2.43485C12.9871 2.43485 12.964 2.47148 12.9471 2.63404C12.8756 3.12881 12.6409 3.5898 12.2762 3.95162C12.1369 4.11411 12.0073 4.2838 11.888 4.45988L11.7667 4.65105L11.2512 4.63274C10.2892 4.61309 9.33206 4.49798 8.3956 4.28932C8.26893 4.26267 8.14478 4.2263 8.0244 4.18057C7.98087 4.15792 7.93307 4.14354 7.88368 4.13822C7.80357 4.12151 7.72637 4.09414 7.65441 4.05693C7.58936 4.02381 7.52112 3.99659 7.45061 3.97566C7.42878 3.97566 7.42635 4.02717 7.45061 4.14851C7.49148 4.54633 7.49148 4.94694 7.45061 5.34476C7.29877 6.20819 7.09341 7.06248 6.83559 7.90323L6.78099 8.08296L6.59297 8.11616C6.38369 8.16497 6.17788 8.22613 5.97673 8.29931C5.5905 8.47292 5.16406 8.55168 4.73696 8.52826C4.54166 8.52025 4.33302 8.50537 4.27236 8.49506C4.16804 8.47789 4.16197 8.48133 4.16197 8.54314C4.17318 8.60514 4.19933 8.66388 4.2384 8.71484C4.38528 8.97227 4.47796 9.25411 4.51134 9.54478C4.53025 9.76344 4.53025 9.98319 4.51134 10.2019C4.49608 10.3989 4.49608 10.5967 4.51134 10.7937C4.5356 10.9734 4.53316 10.9894 4.47251 11.0375C4.34029 11.1382 3.43412 11.6797 3.1078 11.8537L2.5413 12.1479C2.16554 12.3353 1.77642 12.4979 1.37675 12.6344C1.26757 12.6665 1.14141 12.7111 1.09531 12.7306C1.05277 12.7496 1.00734 12.7624 0.960663 12.7683C0.83784 12.7752 0.717573 12.8044 0.606445 12.8542C0.647023 12.9143 0.695989 12.969 0.752018 13.0167C0.813251 13.0648 0.865704 13.1221 0.907289 13.1862C0.938054 13.2462 0.97903 13.3011 1.02859 13.3487C1.33851 13.7627 1.60387 14.2049 1.82073 14.6686C2.12463 15.2703 2.38641 15.8902 2.60438 16.5242C2.57283 16.5869 2.52923 16.6436 2.47579 16.6913C2.3419 16.8429 2.21716 17.0016 2.10217 17.1664C1.97278 17.3504 1.8335 17.5281 1.68487 17.6987C1.4654 17.921 1.20263 18.1013 0.910926 18.2299C0.711982 18.2722 0.738675 18.3592 0.969159 18.4496C1.45658 18.6829 1.85725 19.0506 2.11794 19.5039C2.23084 19.6694 2.35567 19.8274 2.49156 19.9767L2.63714 20.1198L2.551 20.3384C2.37874 20.7895 1.9845 21.6904 1.86319 21.9216C1.79405 22.0544 1.72005 22.2032 1.69943 22.2547C1.49943 22.6435 1.26187 23.0141 0.989779 23.3617C0.952069 23.3966 0.922706 23.4388 0.903652 23.4853C0.865955 23.55 0.816234 23.6078 0.756867 23.6559C0.702013 23.7026 0.653153 23.7552 0.611295 23.8127C0.611295 23.8333 0.676806 23.8493 0.889094 23.8802C0.959213 23.8909 1.02793 23.9086 1.0941 23.9329C1.14262 23.9524 1.29911 24.0062 1.44347 24.0474C1.78153 24.1594 2.11035 24.2949 2.42727 24.4526C2.48428 24.4858 2.67838 24.5888 2.8567 24.6816C3.18059 24.8475 4.04188 25.3501 4.35849 25.5573L4.52104 25.6637V26.3586C4.52104 26.7409 4.50891 27.1256 4.49678 27.2137C4.44823 27.4833 4.35228 27.7432 4.21292 27.983C4.12679 28.1043 4.12679 28.1249 4.16439 28.1627C4.202 28.2005 4.22505 28.2005 4.36455 28.1627C4.67088 28.1051 4.98622 28.1051 5.29255 28.1627C5.5258 28.2185 5.75545 28.2869 5.98037 28.3676C6.18766 28.4426 6.39904 28.5072 6.6136 28.5611L6.79191 28.5954L6.83801 28.7373C6.93627 29.035 7.20193 30.0835 7.282 30.4544C7.43729 31.1362 7.4924 31.835 7.44576 32.531C7.43308 32.5823 7.42899 32.6352 7.43363 32.6878C7.44091 32.6992 7.51976 32.6695 7.61438 32.6237C7.69738 32.5815 7.78377 32.5455 7.87276 32.5161C7.92129 32.5024 8.03896 32.4657 8.13722 32.4348C8.55146 32.3237 8.974 32.2422 9.40124 32.191L10.0272 32.1223C10.4772 32.0719 11.4562 32.0147 11.6515 32.0284C11.7922 32.0376 11.7946 32.0387 11.9135 32.223C11.9802 32.3249 12.1561 32.547 12.2956 32.7176C12.4357 32.883 12.5645 33.0566 12.6814 33.2373C12.8276 33.4809 12.9216 33.7493 12.958 34.0271C12.958 34.2778 13.0138 34.2962 13.2006 34.1084C13.579 33.7471 14.0623 33.4998 14.5896 33.3975C14.7999 33.3455 15.0072 33.2832 15.2107 33.2109L15.4217 33.1297L15.8123 33.4296C16.5551 33.9746 17.2452 34.5806 17.8746 35.2406C18.0679 35.4449 18.2356 35.6696 18.3744 35.9102C18.408 35.9777 18.4513 36.0404 18.5029 36.0968C18.5499 36.0424 18.5883 35.9819 18.617 35.9171C18.6509 35.8457 18.6945 35.7787 18.7468 35.7179C18.7999 35.6647 18.8471 35.6064 18.8875 35.5439C19.1791 35.1813 19.5038 34.8434 19.8579 34.5343L20.4026 34.0683C20.6877 33.8245 21.3379 33.314 21.5138 33.1984L21.606 33.1388L21.7928 33.2201C21.9512 33.2806 22.1132 33.3322 22.278 33.3746C22.4406 33.417 22.6553 33.4754 22.7633 33.504C23.2076 33.6291 23.6021 33.8766 23.8963 34.2149C23.9075 34.2279 23.9231 34.237 23.9404 34.2407C23.9578 34.2444 23.976 34.2426 23.9921 34.2355C24.0467 34.2206 24.0564 34.1954 24.0576 34.0729C24.0934 33.7765 24.1911 33.4898 24.3451 33.2293C24.4634 33.0534 24.5918 32.8837 24.7297 32.721C24.868 32.5581 24.9972 32.3885 25.1166 32.2127L25.2379 32.0216L25.768 32.0399C26.7985 32.058 27.823 32.1913 28.8201 32.4371C28.9342 32.4749 29.0725 32.5138 29.1283 32.5264C29.2212 32.5524 29.3114 32.5865 29.3976 32.6283C29.453 32.6596 29.5137 32.6817 29.5771 32.6935C29.5827 32.6433 29.579 32.5926 29.5662 32.5436C29.5299 32.1628 29.5299 31.7796 29.5662 31.3988C29.7128 30.4783 29.9247 29.5681 30.2006 28.6744C30.2225 28.6 30.2419 28.5931 30.4153 28.5599C30.6246 28.5112 30.8305 28.45 31.0316 28.3767C31.4178 28.203 31.8442 28.1243 32.2713 28.1478C32.4679 28.1558 32.6741 28.1707 32.7323 28.1799C32.8791 28.2039 32.8961 28.1489 32.7881 27.9887C32.6363 27.7207 32.5388 27.4284 32.5006 27.1267C32.4828 26.9107 32.4828 26.6937 32.5006 26.4776C32.5156 26.2799 32.5156 26.0813 32.5006 25.8835C32.4751 25.7015 32.4776 25.6866 32.5382 25.6397C32.6801 25.5321 33.8532 24.8384 34.1298 24.7056C34.2911 24.6243 34.4731 24.5305 34.5289 24.495C34.8863 24.3199 35.2555 24.1669 35.634 24.0371C35.7287 24.0097 35.8219 23.9776 35.913 23.9409C35.9563 23.9216 36.0026 23.9088 36.0501 23.9031C36.1721 23.897 36.2918 23.8695 36.4031 23.8219C36.3601 23.7631 36.311 23.7086 36.2563 23.6593C36.197 23.607 36.1478 23.5454 36.1107 23.4773C36.1005 23.4416 36.0784 23.4099 36.0476 23.3869C35.9946 23.3371 35.9467 23.2827 35.9045 23.2243C35.6918 22.9098 35.4966 22.585 35.3198 22.2513C35.2895 22.1792 35.1791 21.9514 35.0772 21.7453C34.831 21.2428 34.6128 20.7285 34.4233 20.2045C34.4076 20.1324 34.4233 20.1026 34.5374 19.9859C34.6711 19.8325 34.7958 19.6724 34.911 19.5062C35.0399 19.3219 35.1792 19.1442 35.3283 18.9739C35.5481 18.7517 35.8108 18.5711 36.1022 18.4416C36.1956 18.421 36.2611 18.3775 36.2611 18.3409C36.2044 18.2944 36.139 18.2583 36.0683 18.2344C35.5825 18.0099 35.1812 17.6503 34.9183 17.2042C34.7922 17.0266 34.6557 16.8557 34.5095 16.6925L34.3712 16.5494L34.5434 16.1224C34.8018 15.4848 35.008 15.0051 35.15 14.7487C35.2179 14.6194 35.2907 14.4706 35.3137 14.4168C35.4907 14.0897 35.6867 13.7721 35.9009 13.4655L36.0671 13.2457C36.1282 13.1687 36.1942 13.0954 36.2648 13.0259C36.3171 12.9804 36.362 12.928 36.3982 12.8702C36.3982 12.8462 36.3388 12.8302 36.1192 12.7981C36.0492 12.7871 35.9805 12.7694 35.9142 12.7454C35.8657 12.726 35.7347 12.6825 35.6231 12.6493C34.5895 12.2614 33.6099 11.7563 32.7056 11.1451L32.4848 11.0054V10.3083C32.4848 9.92598 32.4982 9.54134 32.5103 9.4532C32.5563 9.1987 32.6434 8.95237 32.7687 8.72286C32.8087 8.66219 32.8488 8.60037 32.8609 8.5832C32.8654 8.57012 32.8655 8.55605 32.8611 8.54293C32.8568 8.52981 32.8482 8.51827 32.8366 8.50994C32.7978 8.47216 32.7736 8.47216 32.6389 8.50994C32.1393 8.59125 31.6254 8.53481 31.1589 8.34739C30.9075 8.24455 30.6469 8.16296 30.3802 8.10356L30.2128 8.07265L30.1557 7.8872C29.9024 7.06999 29.7154 6.23573 29.5965 5.39169C29.5374 4.9743 29.5268 4.55205 29.565 4.13249C29.5807 4.05808 29.5807 4.00657 29.565 3.99627C29.4908 4.00331 29.4192 4.02558 29.3551 4.06152C28.7068 4.3068 28.0238 4.46106 27.3281 4.5194C26.7688 4.58122 25.6686 4.65105 25.4235 4.64075L25.2222 4.6316L25.1009 4.44958C25.0341 4.3477 24.8582 4.12562 24.7187 3.95506C24.5787 3.78964 24.4499 3.61606 24.333 3.43534C24.1862 3.19196 24.0922 2.92347 24.0564 2.64549C24.0564 2.40166 23.9788 2.37075 23.8223 2.55505C23.5184 2.85867 23.1345 3.08068 22.7099 3.19838C22.4025 3.26888 22.1002 3.35798 21.8049 3.46511L21.5926 3.54638L21.4531 3.43993C20.5387 2.7946 19.7048 2.05341 18.9676 1.2306L18.7504 0.952424C18.7085 0.900334 18.6723 0.844336 18.6424 0.785298C18.6 0.677693 18.5211 0.583821 18.4969 0.603281H18.475ZM18.5612 1.73084C18.7879 2.11155 19.0558 2.46909 19.3606 2.79773C19.5049 2.94426 19.8458 3.2705 20.1273 3.52807C20.4087 3.78563 20.6331 3.99855 20.6331 4.00771C20.5923 4.04829 20.5448 4.08232 20.4924 4.10845C19.7832 4.56735 19.1738 5.15022 18.697 5.82555C18.6361 5.92697 18.5676 6.02413 18.492 6.11631C18.4199 6.02654 18.3546 5.93205 18.2967 5.83356C18.0142 5.43246 17.6828 5.06401 17.3093 4.73576C17.0329 4.50237 16.743 4.28377 16.4407 4.08098C16.3898 4.0535 16.3546 4.02374 16.3546 4.0123C16.3546 4.00085 16.5802 3.78335 16.8604 3.52578C17.4572 3.03974 17.965 2.46425 18.3634 1.82242C18.3997 1.75563 18.4441 1.69301 18.4957 1.63583C18.5253 1.66404 18.5481 1.69803 18.5624 1.73542L18.5612 1.73084ZM23.8756 4.097C23.9704 4.31345 24.0391 4.53922 24.0807 4.7701L23.7252 4.8674C23.5469 4.91663 23.3286 4.98188 23.24 5.00592L23.0738 5.05628L22.8033 4.72088C22.6541 4.53543 22.5012 4.35113 22.46 4.30992L22.3896 4.23666L22.5037 4.17141C22.6407 4.09472 23.1454 3.74786 23.4135 3.54867C23.4758 3.49457 23.5471 3.45048 23.6245 3.41817C23.633 3.42619 23.7458 3.73069 23.8781 4.097H23.8756ZM13.5136 3.51892C13.5827 3.56814 13.7271 3.66773 13.8302 3.73641C13.9333 3.80509 14.1237 3.93216 14.2511 4.0203C14.3785 4.10845 14.5034 4.18858 14.5301 4.20232C14.5568 4.21606 14.5701 4.23323 14.5301 4.2836L14.2014 4.70028L13.9151 5.06316L13.7938 5.02766L13.2904 4.88228C13.0817 4.82276 12.9046 4.76781 12.8985 4.76781C12.8925 4.76781 13.3486 3.42962 13.3704 3.42848C13.4224 3.45382 13.4712 3.48454 13.516 3.52006L13.5136 3.51892ZM29.1901 4.21605C29.1901 4.21605 29.1695 4.23322 29.144 4.24238C29.1186 4.25154 29.1064 4.24238 29.1161 4.23208C29.1258 4.22177 29.1913 4.19316 29.1913 4.21605H29.1901ZM7.57435 4.45988C7.56586 4.48163 7.55857 4.47477 7.55615 4.44271C7.55372 4.41066 7.55615 4.39692 7.57192 4.40608C7.57704 4.41422 7.57976 4.42352 7.57976 4.43298C7.57976 4.44245 7.57704 4.45174 7.57192 4.45988H7.57435ZM8.66611 5.04942C9.11735 5.20766 9.58554 5.31897 10.0624 5.38139C10.2916 5.40887 11.1675 5.5325 11.2354 5.54394C11.3033 5.55539 11.2961 5.55882 11.2148 5.78777C10.9367 6.52505 10.8095 7.30547 10.8399 8.08754C10.8559 8.20135 10.862 8.31621 10.8581 8.43096C10.7402 8.40289 10.6253 8.36457 10.5148 8.31648C9.8372 8.0788 9.12093 7.95408 8.39802 7.94788L7.84487 7.93071L7.85942 7.81623C7.88246 7.64796 7.96617 7.17633 8.01591 6.94166C8.04017 6.82719 8.08384 6.53642 8.11417 6.2926C8.15591 6.01355 8.16526 5.73104 8.14207 5.45007C8.1263 5.22914 8.10689 4.99218 8.09597 4.92922L8.07656 4.81475L8.16754 4.85825C8.21728 4.88229 8.44291 4.97272 8.66855 5.054L8.66611 5.04942ZM15.8014 4.93495C16.1679 5.19633 16.5145 5.48169 16.8386 5.78891C17.1423 6.12171 17.4022 6.48803 17.6125 6.87984C17.7933 7.24272 17.803 7.21525 17.4912 7.237C17.3035 7.25285 17.1168 7.27846 16.932 7.31369C16.8262 7.33831 16.7182 7.35326 16.6093 7.35834C16.5739 7.32722 16.5479 7.28769 16.5341 7.24387C16.4256 7.01222 16.2809 6.79728 16.1047 6.60625C15.8136 6.2819 15.4921 5.98305 15.1439 5.71337C15.0372 5.6401 14.9814 5.58172 14.9947 5.56111C15.1656 5.29378 15.3691 5.04635 15.6013 4.82391C15.6751 4.85461 15.7451 4.89301 15.8099 4.93838L15.8014 4.93495ZM21.5611 4.99218C21.6921 5.14786 21.9432 5.47869 21.9905 5.56455C22.0002 5.58057 21.9274 5.64582 21.8268 5.71909C21.4464 6.01841 21.1008 6.35493 20.7957 6.72301C20.6854 6.86419 20.588 7.01392 20.5045 7.1706C20.4402 7.30568 20.3929 7.37093 20.3589 7.37093C20.2601 7.35776 20.1621 7.33941 20.0654 7.31598C19.8859 7.27952 19.7039 7.25542 19.5207 7.24387C19.4189 7.24627 19.3174 7.23154 19.2211 7.20037C19.4397 6.71663 19.7292 6.26425 20.0812 5.85646C20.4715 5.46374 20.9115 5.11773 21.3913 4.8262C21.4516 4.87915 21.5064 4.93742 21.555 5.0002L21.5611 4.99218ZM28.8626 5.3356C28.8248 5.82782 28.8574 6.32259 28.9596 6.80658C28.9888 6.95081 29.0409 7.23928 29.081 7.44419C29.121 7.6491 29.1489 7.84485 29.1562 7.87691C29.1683 7.93529 29.1562 7.93643 28.7692 7.93872C27.8893 7.937 27.0181 8.10366 26.2084 8.42866L26.1053 8.47102L26.1332 8.13676C26.1576 7.69058 26.1287 7.24322 26.0471 6.80314C25.9678 6.43268 25.8657 6.06689 25.7414 5.70764L25.6868 5.57599L25.8687 5.54623C25.967 5.5302 26.2484 5.49129 26.4886 5.45924C27.0972 5.40119 27.6962 5.27475 28.273 5.08262C28.4963 5.00134 28.7267 4.90976 28.7886 4.88114C28.8242 4.86087 28.862 4.84436 28.9014 4.83192C28.9014 4.83192 28.8917 5.06087 28.8735 5.33789L28.8626 5.3356ZM12.6608 5.84615C12.7894 5.8782 13.0041 5.94002 13.146 5.98695C13.3474 6.05564 13.3886 6.08082 13.3789 6.11631C13.1444 6.78631 13.0646 7.49591 13.1448 8.19743C13.1763 8.3348 13.1775 8.38402 13.1448 8.40691C13.112 8.42981 12.6814 8.67593 12.3575 8.84535C12.2131 8.92205 12.1561 8.93922 12.1464 8.91289C12.0176 8.38132 11.9715 7.83491 12.0094 7.2908C12.09 6.7801 12.2254 6.27843 12.4133 5.7935C12.4206 5.7935 12.5346 5.81868 12.6559 5.85073L12.6608 5.84615ZM24.6617 5.97665C24.703 6.07853 24.7927 6.38761 24.8607 6.66349L24.982 7.16145V7.75556C24.9975 8.0516 24.9751 8.34833 24.9153 8.6393C24.8961 8.74051 24.871 8.84063 24.84 8.93921C24.4946 8.78165 24.16 8.60388 23.838 8.40691C23.8126 8.38516 23.8162 8.33022 23.849 8.17797C23.9108 7.58437 23.8628 6.98514 23.707 6.40707C23.6731 6.28573 23.6391 6.16324 23.6318 6.12776C23.6245 6.09227 23.6488 6.05907 23.8465 5.99268C24.0443 5.92628 24.5113 5.79349 24.5671 5.78662C24.6094 5.84315 24.6418 5.90578 24.6629 5.97207L24.6617 5.97665ZM14.7485 6.8581C15.0054 7.06024 15.2403 7.28611 15.4496 7.53234C15.3751 7.57631 15.293 7.60769 15.207 7.62506L14.6005 7.8025L14.2366 7.91125V7.70863C14.2394 7.34884 14.322 6.99358 14.4792 6.66577C14.4986 6.67608 14.6138 6.76194 14.7376 6.8581H14.7485ZM22.5716 6.77681C22.6869 7.14428 22.7537 7.52377 22.7705 7.90667C22.7584 7.91812 21.777 7.63193 21.5951 7.56325C21.5005 7.52776 21.8146 7.2038 22.352 6.78597C22.4042 6.74122 22.4621 6.70277 22.5243 6.6715C22.5364 6.6715 22.5607 6.71958 22.5764 6.77452L22.5716 6.77681ZM18.1123 8.94036C18.1123 8.95524 18.0759 8.96669 18.0311 8.96554H17.9534L18.0274 8.94494L18.1087 8.91975C18.1087 8.91975 18.116 8.92662 18.116 8.9438L18.1123 8.94036ZM19.0221 8.95753C19.0221 8.95753 18.9906 8.96783 18.9481 8.96783C18.9057 8.96783 18.8741 8.95753 18.8741 8.9438C18.8741 8.93006 18.9057 8.92548 18.9481 8.93349C18.9906 8.9415 19.0221 8.94379 19.0221 8.94952V8.95753ZM8.65884 9.02278C8.98273 9.05254 9.33209 9.09376 9.43642 9.11779C9.87843 9.23879 10.307 9.3998 10.7162 9.59858C10.9418 9.71992 10.9588 9.73366 10.9067 9.77487L10.4687 10.1572L10.0818 10.4949L9.92529 10.4136C9.31645 10.1543 8.66128 10.0056 7.99407 9.9752L7.70657 9.95803V9.51273C7.70092 9.35332 7.70823 9.19373 7.72841 9.03538C7.77391 9.00647 7.82763 8.9913 7.88247 8.99187L8.0438 8.97699C8.05957 8.97699 8.33737 8.99645 8.66005 9.02621L8.65884 9.02278ZM29.2811 9.00904C29.3114 9.27283 29.3199 9.53845 29.3066 9.80349L29.286 9.95573L28.9815 9.97405C28.3329 10.0097 27.6961 10.1527 27.1 10.3965L26.9156 10.4926L26.5129 10.14L26.0725 9.7577C25.9743 9.67642 27.1898 9.17732 27.6968 9.09261C28.1348 9.02158 28.5784 8.98673 29.0227 8.98844C29.155 8.99188 29.2702 8.99988 29.2763 9.00217L29.2811 9.00904ZM6.54688 9.40283C6.5396 9.56539 6.52747 9.80234 6.51776 9.92482L6.50199 10.1538L6.36491 10.1961L5.85543 10.3587L5.48179 10.4823L5.45025 10.3678C5.43205 10.3049 5.32894 10.0073 5.22947 9.7039C5.13 9.40054 5.04145 9.14412 5.04145 9.13153C5.29379 9.10849 5.54739 9.10007 5.80083 9.10634H6.55051L6.53717 9.40512L6.54688 9.40283ZM31.8856 9.13153L31.9511 9.1487L31.8844 9.34102C31.7825 9.62834 31.5799 10.2385 31.5411 10.3713L31.5071 10.4857L31.2972 10.4125C31.182 10.3713 30.9479 10.2911 30.7732 10.2328L30.459 10.1274V9.681C30.4616 9.511 30.4551 9.34098 30.4396 9.17159L30.4202 9.10863H31.1201C31.5047 9.10863 31.848 9.12123 31.8856 9.13153V9.13153ZM12.9471 9.20708C12.8718 9.26088 12.8257 9.25974 12.8731 9.20708C12.8953 9.18382 12.9261 9.16949 12.9592 9.16702C12.9992 9.16702 12.998 9.17388 12.9483 9.20937L12.9471 9.20708ZM24.1522 9.23684C24.1304 9.2563 24.0431 9.21624 24.0431 9.18762C24.0431 9.159 24.071 9.17503 24.1037 9.18762C24.1365 9.20021 24.1547 9.22082 24.1474 9.22883L24.1522 9.23684ZM19.1483 9.35819C19.4006 9.38337 19.5729 9.4097 20.3044 9.53219C20.8394 9.62939 21.3643 9.77113 21.8729 9.95573C22.4553 10.1655 23.0184 10.4201 23.5566 10.717C23.6491 10.7776 23.7459 10.8319 23.8465 10.8795C24.1132 11.0433 24.3655 11.2271 24.6011 11.429C25.1696 11.9003 25.6881 12.4229 26.149 12.9893C26.2288 13.0833 26.3018 13.1823 26.3673 13.2858C26.4183 13.367 26.5335 13.5456 26.6257 13.6795C26.911 14.1223 27.1675 14.581 27.3936 15.0532C27.6251 15.6214 27.7878 16.2124 27.8788 16.815C27.8877 16.9024 27.9022 16.9891 27.9225 17.0748C27.9297 17.0863 27.9564 17.3621 27.9831 17.6861C28.0212 18.0525 28.0256 18.4213 27.9965 18.7885C27.9688 19.9776 27.6609 21.146 27.0952 22.2089C27.0309 22.3142 26.9423 22.4734 26.9011 22.5604C26.8284 22.6982 26.7474 22.832 26.6584 22.961C26.5675 23.0927 26.434 23.2941 26.3649 23.4052C25.8725 24.088 25.2877 24.7072 24.6253 25.247C24.3791 25.4516 24.1207 25.6427 23.8514 25.8194C23.8417 25.8194 23.7058 25.9007 23.5493 25.9911C23.1087 26.2375 22.6489 26.4518 22.1737 26.6322C22.0657 26.6699 21.8741 26.7398 21.7552 26.7879C21.2625 26.9421 20.7606 27.069 20.2522 27.1679C19.2671 27.3964 18.242 27.4265 17.2438 27.2561C17.0715 27.2252 16.8143 27.1828 16.6882 27.1633C16.2062 27.0741 15.7315 26.9529 15.2677 26.8005C15.127 26.7478 14.9316 26.6757 14.8261 26.6379C14.3447 26.4476 13.8771 26.2277 13.4262 25.9797C13.3494 25.9269 13.2682 25.8798 13.1836 25.8389C12.8813 25.657 12.5971 25.4497 12.3345 25.2196C11.946 24.9025 11.5861 24.5556 11.2585 24.1824C11.1371 24.0348 10.971 23.8505 10.8945 23.7692C10.3912 23.1185 9.96301 22.4189 9.61717 21.6824C9.13985 20.492 8.9268 19.2218 8.99122 17.9505C9.01586 16.758 9.31949 15.5853 9.8804 14.5163C9.95197 14.4019 10.0442 14.2313 10.0854 14.142C10.1704 13.9849 10.2639 13.8321 10.3656 13.6841C10.476 13.5216 10.6082 13.3178 10.6653 13.232C10.9726 12.817 11.3155 12.4265 11.6903 12.0643C12.1305 11.623 12.6184 11.2263 13.146 10.8807C13.1715 10.8704 13.3073 10.7925 13.4481 10.7078C13.903 10.456 14.3784 10.2385 14.8698 10.0576C15.0311 9.99924 15.2252 9.92598 15.2992 9.89507C15.9033 9.71841 16.5177 9.57508 17.1394 9.46579C17.796 9.34776 18.4665 9.31463 19.1325 9.36734L19.1483 9.35819ZM7.38147 9.63979C7.37176 9.6604 7.3657 9.65352 7.3657 9.62261C7.3657 9.59171 7.3657 9.57683 7.38026 9.58713C7.38463 9.59529 7.3869 9.60432 7.3869 9.61346C7.3869 9.62261 7.38463 9.63163 7.38026 9.63979H7.38147ZM13.2346 9.66497C13.2006 9.69588 13.1545 9.71649 13.1327 9.71076C13.1108 9.70504 13.1254 9.68214 13.1812 9.65352C13.2904 9.58484 13.3001 9.58714 13.2224 9.65696L13.2346 9.66497ZM23.8708 9.71076C23.8478 9.71763 23.8029 9.69588 23.7677 9.66154L23.7046 9.60201L23.8077 9.65123C23.8611 9.67069 23.8854 9.69588 23.8623 9.7016L23.8708 9.71076ZM5.06814 10.5808C5.05843 10.6014 5.05237 10.5956 5.04994 10.5636C5.04752 10.5315 5.04994 10.5189 5.0645 10.5281C5.06897 10.5362 5.07129 10.5453 5.07129 10.5544C5.07129 10.5636 5.06897 10.5726 5.0645 10.5808H5.06814ZM8.71827 11.1714C8.93944 11.1865 9.15596 11.2388 9.35756 11.326C9.29033 11.4125 9.21611 11.494 9.13557 11.5698C8.99156 11.7214 8.8613 11.8841 8.74618 12.0563C8.65277 12.1983 8.56786 12.3047 8.55573 12.2933C8.3213 11.9317 8.12737 11.548 7.97708 11.1485C8.2237 11.1223 8.47308 11.1308 8.71706 11.1737L8.71827 11.1714ZM28.9427 11.4004C28.8412 11.662 28.7102 11.9126 28.5521 12.1479L28.4307 12.323L28.3446 12.188C28.2059 11.9613 28.0434 11.7485 27.8594 11.5526C27.7856 11.4812 27.7174 11.4047 27.6556 11.3237C27.8425 11.2538 28.0389 11.2091 28.2391 11.1909L28.5339 11.1508C28.5739 11.1508 28.7061 11.1382 28.8323 11.136H29.0567L28.9427 11.4004ZM11.381 11.1714C11.381 11.1714 11.3604 11.1898 11.3349 11.1989C11.3094 11.2081 11.2961 11.1989 11.3058 11.1898C11.3155 11.1806 11.3713 11.136 11.3713 11.1577L11.381 11.1714ZM25.136 11.2104C25.17 11.2539 25.1688 11.2539 25.1239 11.2207C25.1041 11.2075 25.0872 11.1908 25.0742 11.1714C25.0645 11.136 25.0875 11.1497 25.1263 11.1966L25.136 11.2104ZM25.7038 11.1886C25.7147 11.2046 25.7038 11.2092 25.6746 11.1989C25.6249 11.1806 25.6164 11.1611 25.6589 11.1611C25.6719 11.162 25.6842 11.1668 25.694 11.1749L25.7038 11.1886ZM6.82103 11.5091C7.05057 12.0639 7.38378 12.5753 7.80483 13.019L8.02682 13.232L7.85457 13.5307C7.76046 13.7009 7.67938 13.8773 7.61196 14.0584L7.53553 14.2874L7.4579 14.2302C7.09769 13.9297 6.77237 13.5939 6.48743 13.2285C6.31153 12.9594 6.16249 12.6754 6.04224 12.3803C5.91252 12.1215 5.816 11.849 5.75474 11.5687C6.05377 11.4495 6.36197 11.3519 6.67667 11.2768C6.72519 11.2768 6.75067 11.3168 6.81982 11.5126L6.82103 11.5091ZM30.6628 11.3683C30.8387 11.4198 31.0461 11.4897 31.1213 11.5217C31.2427 11.5744 31.256 11.5858 31.2427 11.6534C31.0857 12.1327 30.8827 12.5975 30.6361 13.0419C30.3604 13.4513 30.0283 13.8242 29.6487 14.1512L29.4849 14.2874L29.4194 14.0859C29.3529 13.9075 29.2747 13.7332 29.1853 13.5639L28.9924 13.2274L29.1707 13.0648C29.6511 12.548 30.0133 11.9432 30.2346 11.2882C30.2504 11.239 30.294 11.2458 30.6482 11.3512L30.6628 11.3683ZM4.79641 12.2406C4.89843 12.5484 5.02328 12.8491 5.17003 13.1404C5.39476 13.5523 5.66213 13.9423 5.96823 14.3046C6.05541 14.3899 6.13193 14.4844 6.1963 14.5862C5.64593 14.6877 5.11451 14.8656 4.6193 15.1139C4.22989 15.3139 3.85467 15.5376 3.49599 15.7836L3.39288 15.8648L3.16725 15.4436C3.04594 15.2146 2.90887 14.9571 2.8749 14.8827C2.58795 14.3062 2.21138 13.7733 1.75765 13.3018L1.63634 13.1873L1.75038 13.169C1.81346 13.1587 2.06214 13.1015 2.30354 13.0419C2.93058 12.8675 3.53177 12.619 4.09282 12.3024C4.28441 12.199 4.48344 12.1083 4.68844 12.0311C4.71028 12.0311 4.75759 12.1296 4.79398 12.2452L4.79641 12.2406ZM32.7663 12.2406C33.0089 12.362 33.2733 12.4913 33.3425 12.5291C33.7795 12.7478 34.2409 12.9202 34.7181 13.0431C34.8924 13.0905 35.0694 13.1287 35.2482 13.1575C35.3695 13.1575 35.3695 13.1873 35.2203 13.3373C34.6995 13.8763 34.281 14.4958 33.983 15.1688C33.835 15.4562 33.687 15.7412 33.6542 15.7824L33.596 15.8717L33.4747 15.779C33.1171 15.5293 32.744 15.2999 32.3575 15.0921C31.9872 14.9088 31.5956 14.7666 31.1905 14.6686C31.0726 14.6494 30.9574 14.6175 30.8472 14.5736C30.9135 14.4823 30.9864 14.3954 31.0655 14.3137C31.3696 13.951 31.6292 13.557 31.8395 13.1392C31.9964 12.8113 32.1305 12.474 32.241 12.1296C32.2519 12.0746 32.2738 12.0288 32.2883 12.0288C32.3029 12.0288 32.5188 12.1273 32.7736 12.2498L32.7663 12.2406ZM10.1157 13.2892C10.0975 13.3212 10.0696 13.3441 10.0515 13.3441C10.0333 13.3441 10.0417 13.3201 10.0733 13.2892C10.0909 13.2677 10.1122 13.2491 10.1364 13.2342C10.1339 13.2217 10.1267 13.2445 10.106 13.2766L10.1157 13.2892ZM26.929 13.2892C26.9593 13.3212 26.969 13.3441 26.9496 13.3441C26.9302 13.3441 26.9035 13.3201 26.8865 13.2892C26.8695 13.2583 26.8586 13.2342 26.8647 13.2342C26.885 13.2458 26.9034 13.26 26.9193 13.2766L26.929 13.2892ZM9.6766 14.0092C9.65841 14.0413 9.64022 14.0642 9.63415 14.0642C9.62809 14.0642 9.63415 14.0401 9.63415 14.0092C9.63415 13.9783 9.66083 13.9543 9.67539 13.9543C9.68995 13.9543 9.68874 13.9783 9.67539 14.0092H9.6766ZM27.3632 14.0092C27.3717 14.0413 27.3742 14.0642 27.3632 14.0642C27.3523 14.0642 27.339 14.0401 27.3208 14.0092C27.3026 13.9783 27.3014 13.9543 27.3208 13.9543C27.3402 13.9543 27.3547 13.9783 27.3632 14.0092ZM6.67182 14.3973C6.72641 14.45 6.76523 14.4935 6.75795 14.4935C6.71585 14.466 6.67754 14.4337 6.64392 14.3973C6.61028 14.3695 6.58125 14.3371 6.55779 14.3011C6.59965 14.3289 6.63792 14.3612 6.67182 14.3973V14.3973ZM7.02604 15.5603C7.02604 15.5603 6.97388 15.7893 6.90473 16.0686C6.83559 16.3479 6.78343 16.586 6.78343 16.6089C6.78343 16.6318 6.72034 16.6581 6.55779 16.681C6.39332 16.708 6.23114 16.7463 6.07256 16.7955C5.61152 16.9634 5.16771 17.1707 4.74667 17.4148C4.68044 17.4626 4.60933 17.504 4.53438 17.5384C4.30576 17.3056 4.10818 17.0473 3.94604 16.7692C4.36206 16.4463 4.81636 16.1701 5.29984 15.9461C5.75301 15.7771 6.22388 15.6539 6.70457 15.5787C6.98479 15.5512 7.03575 15.5489 7.03575 15.5603H7.02604ZM30.4796 15.6096C30.8658 15.6824 31.2445 15.787 31.6114 15.9221C32.1035 16.1478 32.5673 16.4246 32.9943 16.7474C33.0222 16.7795 32.9943 16.8344 32.8548 17.0267C32.737 17.2131 32.5957 17.3853 32.4339 17.5396C32.3863 17.5206 32.342 17.4947 32.3029 17.4629C31.7378 17.0886 31.0988 16.825 30.4238 16.6879C30.3498 16.6809 30.2764 16.6687 30.2043 16.6513C30.2043 16.6513 30.1485 16.4223 30.083 16.1476C30.0175 15.8729 29.9616 15.629 29.9616 15.6004C29.9471 15.5489 29.9617 15.5466 30.1339 15.5626C30.237 15.5729 30.3923 15.5924 30.4833 15.6084L30.4796 15.6096ZM8.33616 16.1201C8.32888 16.1464 8.3216 16.1304 8.3216 16.0858C8.3216 16.0411 8.32888 16.0182 8.33616 16.0365C8.34283 16.0633 8.34283 16.0911 8.33616 16.1178V16.1201ZM28.6709 16.0846C28.6681 16.109 28.6593 16.1325 28.6455 16.1533C28.6382 16.1533 28.6333 16.1213 28.6333 16.0846C28.6333 16.048 28.6455 16.0159 28.6588 16.0159C28.6721 16.0159 28.6819 16.048 28.6746 16.0892L28.6709 16.0846ZM3.37833 17.9208L3.68523 18.3409L3.42684 18.6946C3.2837 18.8892 3.15269 19.0758 3.13328 19.1113C3.0884 19.1926 3.06535 19.1926 2.94889 19.093C2.89673 19.0495 2.75359 18.9465 2.63107 18.864C2.36899 18.7021 2.11593 18.5274 1.87289 18.3409C1.99532 18.2416 2.12371 18.1491 2.25744 18.0639C2.47094 17.9173 2.73418 17.7307 2.84942 17.6449C2.91741 17.5905 2.98914 17.5404 3.06414 17.4949C3.06414 17.4949 3.2085 17.6884 3.37833 17.9196V17.9208ZM34.0776 17.6106C34.1989 17.7033 34.3797 17.8292 34.9049 18.1829C34.9815 18.2295 35.0523 18.284 35.116 18.3455C34.9931 18.4452 34.8647 18.5388 34.7315 18.6259C34.5228 18.769 34.2462 18.9602 34.1249 19.0472L33.9151 19.2017L33.8726 19.1262C33.8508 19.0861 33.7113 18.8972 33.5657 18.6992L33.3 18.3478L33.5997 17.9322C33.6974 17.7865 33.8057 17.6473 33.9235 17.5155C33.9795 17.5408 34.0311 17.574 34.0764 17.614L34.0776 17.6106ZM6.70942 18.3409C6.70942 18.8182 6.70093 18.9499 6.67182 18.9407L6.44133 18.8675C6.13868 18.7525 5.85027 18.6067 5.58126 18.4325L5.4357 18.3409L5.67831 18.1898C5.98279 17.9944 6.31476 17.8403 6.66455 17.7319C6.69245 17.7319 6.70094 17.8693 6.70094 18.3409H6.70942ZM30.738 17.8979C31.0141 18.0153 31.274 18.1641 31.512 18.3409C31.1595 18.5892 30.772 18.79 30.3607 18.9373L30.2795 18.9556V17.7273L30.3595 17.7445C30.489 17.7876 30.6154 17.8385 30.738 17.8967V17.8979ZM7.31111 18.3787C7.30262 18.397 7.29534 18.3787 7.29534 18.3443C7.29534 18.31 7.30262 18.2917 7.31111 18.31C7.31964 18.3322 7.31964 18.3565 7.31111 18.3787V18.3787ZM29.6802 18.3935C29.6729 18.4199 29.6669 18.4039 29.6669 18.3592C29.6669 18.3146 29.6669 18.2917 29.6802 18.31C29.6875 18.3366 29.6875 18.3646 29.6802 18.3913V18.3935ZM4.67995 19.2235C5.07546 19.4729 5.49948 19.6795 5.94398 19.8393C6.18081 19.9211 6.42722 19.9757 6.67788 20.0019H6.78099L6.90231 20.5605C6.97024 20.8685 7.02361 21.1214 7.02361 21.1249C6.93719 21.1225 6.85095 21.116 6.76523 21.1054C6.31108 21.0385 5.8644 20.9324 5.43084 20.7883C4.9466 20.5671 4.48596 20.3026 4.05522 19.9985L3.94361 19.9057L4.11587 19.6619C4.23436 19.474 4.37652 19.3002 4.53923 19.1445C4.58714 19.163 4.63143 19.1889 4.67024 19.2212L4.67995 19.2235ZM32.5807 19.2853C32.7459 19.4902 32.8997 19.703 33.0416 19.9229C32.6291 20.2351 32.1817 20.5038 31.7073 20.7242C31.2354 20.9062 30.7422 21.0345 30.2382 21.1066C30.1483 21.119 30.0575 21.1255 29.9665 21.126C30.0096 20.8564 30.0671 20.5889 30.1388 20.3247L30.2067 20.0305L30.4238 19.9996C30.5884 19.973 30.7506 19.9347 30.9091 19.8851C31.3815 19.7192 31.8344 19.5075 32.2604 19.2532C32.312 19.2078 32.3699 19.1692 32.4327 19.1388C32.4887 19.1744 32.5366 19.2204 32.5734 19.2738L32.5807 19.2853ZM8.31918 20.6761C8.29128 20.7002 8.28764 20.6967 8.3022 20.6567C8.31396 20.6252 8.32209 20.5925 8.32645 20.5594C8.32645 20.533 8.33616 20.5422 8.34222 20.5788C8.34496 20.5945 8.34422 20.6105 8.34004 20.6259C8.33586 20.6413 8.32835 20.6556 8.31797 20.6681L8.31918 20.6761ZM28.6588 20.6304C28.6515 20.6567 28.6442 20.6407 28.643 20.596C28.6418 20.5514 28.643 20.5285 28.6576 20.5468C28.6651 20.5734 28.6651 20.6014 28.6576 20.6281L28.6588 20.6304ZM3.4875 20.9097C3.80968 21.1378 4.14545 21.3484 4.49314 21.5404C4.90783 21.7522 5.34703 21.9182 5.80204 22.0349L6.17931 22.1231L5.94761 22.3795C5.63799 22.7476 5.37385 23.1478 5.16033 23.5723C5.00355 23.9005 4.86903 24.2377 4.75758 24.582C4.74667 24.6403 4.7212 24.6804 4.69694 24.6804C4.46534 24.5869 4.239 24.4822 4.01883 24.3668C3.47309 24.0547 2.88337 23.8169 2.26715 23.6605C2.00876 23.5998 1.76129 23.546 1.71641 23.5322L1.63028 23.5174L1.77221 23.3697C2.30989 22.8068 2.74261 22.1619 3.052 21.4626C3.1489 21.252 3.26712 21.0507 3.40501 20.8616C3.43713 20.8676 3.46569 20.8848 3.48507 20.9097H3.4875ZM33.9357 21.4649C34.2453 22.1704 34.6815 22.8202 35.2252 23.3857L35.3562 23.5151L35.2422 23.5334C34.802 23.6194 34.3706 23.7412 33.9527 23.8974C33.7913 23.9672 33.3595 24.1721 32.9931 24.3553C32.6268 24.5385 32.3162 24.6793 32.3053 24.6793C32.2482 24.5841 32.2038 24.4826 32.1731 24.3771C31.9207 23.6544 31.5346 22.9796 31.0328 22.3841L30.7902 22.1242L31.1541 22.043C31.9717 21.8184 32.7391 21.4553 33.4189 20.9715C33.4695 20.9301 33.5253 20.8947 33.5851 20.8662C33.7125 21.0605 33.8271 21.2619 33.9284 21.4694L33.9357 21.4649ZM30.3547 22.2765C30.385 22.3085 30.4008 22.3314 30.3923 22.3314C30.3659 22.3162 30.3434 22.2954 30.3268 22.2708C30.2965 22.2387 30.2807 22.2158 30.2892 22.2158C30.3142 22.23 30.3361 22.2486 30.3535 22.2708L30.3547 22.2765ZM29.9022 22.763C29.992 22.8523 30.1812 23.0595 30.3231 23.2209C30.6044 23.5584 30.8271 23.9359 30.9831 24.3393C31.0973 24.5856 31.1862 24.8417 31.2487 25.104C31.2487 25.1211 31.2063 25.1509 31.1541 25.1704C30.8796 25.2692 30.5998 25.3544 30.3159 25.4256C30.2758 25.4256 30.2467 25.3753 30.1946 25.2253C29.9629 24.6465 29.6227 24.1117 29.1901 23.6467L28.99 23.4578L29.1489 23.1625C29.2429 22.9887 29.324 22.8089 29.3915 22.6245L29.4716 22.3806L29.6062 22.4894C29.6814 22.5489 29.8161 22.6691 29.9071 22.7596L29.9022 22.763ZM7.58163 22.6119C7.64678 22.7906 7.72542 22.9646 7.81696 23.1327L7.98922 23.4521L7.80241 23.625C7.66855 23.7574 7.54682 23.9002 7.43849 24.052C7.18181 24.4291 6.96562 24.8294 6.79313 25.247L6.72519 25.4451L6.52261 25.3924C6.41101 25.3627 6.18902 25.294 6.02768 25.2379L5.73776 25.1326L5.75716 25.0513C5.89955 24.6017 6.08679 24.1659 6.31639 23.7497C6.58389 23.3337 6.90722 22.952 7.27836 22.6142C7.40937 22.4997 7.52097 22.407 7.52097 22.407C7.52097 22.407 7.55494 22.4974 7.59012 22.6084L7.58163 22.6119ZM9.66448 22.6874C9.68146 22.7195 9.68389 22.7424 9.66448 22.7424C9.64507 22.7424 9.63172 22.7183 9.62323 22.6874C9.61474 22.6565 9.61231 22.6325 9.62323 22.6325C9.63415 22.6325 9.6475 22.6565 9.66569 22.6874H9.66448ZM27.3511 22.6874C27.3414 22.7195 27.3232 22.7367 27.3074 22.7275C27.2917 22.7183 27.2941 22.6954 27.3147 22.6725C27.3657 22.6142 27.3742 22.6142 27.356 22.6829L27.3511 22.6874ZM10.1121 23.4155C10.1436 23.4739 10.1424 23.475 10.0988 23.4407C10.0763 23.4252 10.0594 23.4036 10.0502 23.3789C10.0515 23.3342 10.0781 23.3491 10.1121 23.4155ZM26.9666 23.3628C26.9492 23.3868 26.9279 23.4081 26.9035 23.4258C26.8404 23.4784 26.8404 23.4784 26.8756 23.4155C26.9108 23.3525 26.9653 23.3273 26.9653 23.3605L26.9666 23.3628ZM9.15256 25.1475C9.22484 25.2181 9.29021 25.2947 9.34787 25.3764C9.18107 25.4494 9.00289 25.4966 8.82018 25.5161C8.5305 25.5529 8.23895 25.575 7.94677 25.5825C8.03297 25.3405 8.13424 25.1035 8.25003 24.8727C8.29249 24.7915 8.38104 24.6438 8.44655 24.5488L8.56786 24.3748L8.76437 24.6587C8.88416 24.8286 9.01545 24.9911 9.15742 25.1452L9.15256 25.1475ZM28.6746 24.7903C28.8119 25.0287 28.9268 25.2781 29.0179 25.5355C28.7726 25.5771 28.521 25.5721 28.2779 25.5206C28.0578 25.507 27.8423 25.455 27.6423 25.3673C27.6966 25.2911 27.7592 25.2205 27.8291 25.1566C28.0501 24.922 28.2426 24.6647 28.4028 24.3896C28.4028 24.3278 28.5181 24.5041 28.6782 24.7903H28.6746ZM11.3519 25.5309C11.3434 25.539 11.3179 25.5309 11.2985 25.5126C11.2791 25.4943 11.273 25.4817 11.3155 25.4966C11.3579 25.5115 11.3616 25.5195 11.3519 25.5287V25.5309ZM25.7171 25.5069C25.7089 25.5164 25.6985 25.524 25.6867 25.5291C25.675 25.5343 25.6621 25.5369 25.6492 25.5367C25.6067 25.5367 25.6067 25.5367 25.6492 25.5092C25.6916 25.4817 25.7438 25.4737 25.722 25.5092L25.7171 25.5069ZM31.9414 26.0678C31.9317 26.0884 31.9256 26.0816 31.9256 26.0495C31.9256 26.0175 31.9256 26.0049 31.9402 26.0152C31.9445 26.0233 31.9468 26.0323 31.9468 26.0415C31.9468 26.0506 31.9445 26.0597 31.9402 26.0678H31.9414ZM6.22419 26.4628L6.53959 26.5669V26.9893C6.53959 27.2183 6.54808 27.4472 6.55779 27.4976L6.57598 27.5846H5.87483C5.49029 27.5846 5.14698 27.5731 5.10938 27.564L5.0463 27.5457L5.11301 27.3534C5.21127 27.0706 5.41629 26.4605 5.45632 26.3231L5.49029 26.2086L5.69893 26.2842C5.81417 26.3254 6.05194 26.4055 6.22419 26.4639V26.4628ZM10.5221 26.5772L10.9576 26.9573L10.8484 27.0202C10.3812 27.2747 9.87918 27.4673 9.35635 27.5926C8.86603 27.6662 8.37046 27.7045 7.87397 27.7071L7.71264 27.6888L7.69445 27.5045C7.67097 27.2887 7.67097 27.0712 7.69445 26.8554L7.71264 26.7283L8.0147 26.71C8.672 26.6753 9.31723 26.5287 9.91922 26.2773C10.0005 26.2327 10.0709 26.196 10.0745 26.196C10.0781 26.196 10.2795 26.3666 10.5185 26.5761L10.5221 26.5772ZM27.0927 26.291C27.6904 26.5362 28.3295 26.6793 28.9803 26.7134L29.2884 26.7318L29.2799 27.2045L29.2714 27.6773L29.081 27.6933C28.5692 27.6898 28.0586 27.6484 27.5537 27.5697C27.1129 27.449 26.6856 27.2884 26.2775 27.0901L26.0349 26.9573L26.2775 26.7547C26.4086 26.6402 26.6051 26.4696 26.707 26.3746C26.8089 26.2796 26.8998 26.2006 26.9035 26.2006C26.9071 26.2006 26.9896 26.2441 27.0939 26.2945L27.0927 26.291ZM31.5568 26.3002C31.5678 26.3574 31.6199 26.5291 31.6781 26.6803C31.8189 27.0752 31.9572 27.5056 31.9572 27.5422C31.7085 27.5861 31.4547 27.598 31.2026 27.5777H30.4469L30.4554 27.3064C30.4554 27.1565 30.4711 26.9241 30.4808 26.7867L30.4978 26.5372L31.0013 26.3677C31.2766 26.2739 31.512 26.196 31.5229 26.1949C31.5338 26.1937 31.5399 26.243 31.5532 26.3014L31.5568 26.3002ZM13.2394 27.0305L13.2952 27.0901L13.2006 27.0443C13.0963 26.9951 13.0793 26.9722 13.1448 26.9722C13.1803 26.9831 13.2116 27.0039 13.2346 27.0317L13.2394 27.0305ZM23.8938 26.9847C23.8662 27.0095 23.8336 27.029 23.798 27.042L23.7022 27.0855L23.7713 27.0294C23.8332 26.9744 23.889 26.955 23.889 26.9859L23.8938 26.9847ZM29.6596 27.2137C29.6523 27.24 29.645 27.224 29.6438 27.1794C29.6426 27.1347 29.6438 27.113 29.6572 27.1301C29.665 27.1567 29.665 27.1848 29.6572 27.2114L29.6596 27.2137ZM22.1385 27.3041C22.1169 27.3184 22.0919 27.3274 22.0657 27.3305C22.0488 27.3305 22.0548 27.3202 22.0791 27.3041C22.1007 27.2899 22.1257 27.2808 22.1519 27.2778C22.1592 27.2778 22.1531 27.2893 22.1288 27.3076L22.1385 27.3041ZM12.9337 27.4667C12.9568 27.4793 12.9653 27.501 12.9531 27.5125C12.941 27.5239 12.9082 27.5125 12.8803 27.4861C12.8185 27.4369 12.8512 27.422 12.924 27.4667H12.9337ZM24.128 27.4861C24.1001 27.5125 24.0673 27.5239 24.0552 27.5125C24.0431 27.501 24.0552 27.4793 24.0746 27.4667C24.1401 27.422 24.1716 27.4369 24.1183 27.4861H24.128ZM18.1245 27.7403C18.1245 27.754 18.0905 27.7597 18.0517 27.7529C18.0129 27.746 17.9789 27.7346 17.9789 27.7277C17.9789 27.7208 18.0129 27.7162 18.0517 27.7162C18.0905 27.7162 18.116 27.7265 18.116 27.7403H18.1245ZM19.0343 27.7277C19.0343 27.7346 19.0027 27.746 18.9603 27.7529C18.9178 27.7597 18.8863 27.7529 18.8863 27.7403C18.8863 27.7277 18.9178 27.7162 18.9603 27.7162C19.0027 27.7162 19.0258 27.7208 19.0258 27.7265L19.0343 27.7277ZM12.5213 27.9292L13.0065 28.1959C13.0649 28.2253 13.1205 28.2594 13.1727 28.2978C13.1724 28.3639 13.163 28.4297 13.1448 28.4935C13.0781 29.1102 13.1287 29.7332 13.294 30.3331C13.334 30.4647 13.3668 30.5803 13.3668 30.5929C13.1699 30.6987 12.9572 30.7759 12.736 30.8219L12.4545 30.8952C12.3878 30.9123 12.2823 30.6399 12.1634 30.1591C12.0008 29.6153 11.9509 29.0471 12.0166 28.4855C12.0307 28.2368 12.0804 27.9912 12.1646 27.7552C12.1731 27.7552 12.3369 27.8364 12.5176 27.9372L12.5213 27.9292ZM24.9055 27.9967C24.9493 28.2349 24.978 28.4753 24.9917 28.7167C25.0238 28.9745 25.0189 29.2352 24.9771 29.4917C24.9055 29.9013 24.8034 30.3057 24.6714 30.7017L24.5914 30.902L24.4882 30.8849C24.3851 30.8677 23.6391 30.641 23.6197 30.6193C23.6311 30.5438 23.6511 30.4698 23.6791 30.3983C23.8687 29.7873 23.9301 29.1473 23.8599 28.5141C23.8376 28.4451 23.8269 28.3733 23.8283 28.3012C23.8818 28.2603 23.9395 28.2246 24.0006 28.1947L24.4858 27.928C24.596 27.8597 24.7151 27.8051 24.84 27.7655C24.8705 27.8396 24.8936 27.9163 24.9092 27.9944L24.9055 27.9967ZM10.8618 28.6229C10.8444 29.0419 10.8757 29.4615 10.9552 29.8741C11.033 30.2502 11.1355 30.6214 11.2621 30.9856C11.2846 31.0282 11.3001 31.0737 11.3082 31.1207L10.92 31.1756C10.7138 31.2054 10.3972 31.2489 10.2225 31.2718C9.73916 31.3245 9.26354 31.4277 8.80441 31.5797C8.62245 31.6472 8.46838 31.7022 8.4611 31.7022C8.39482 31.7258 8.33002 31.7529 8.26702 31.7835L8.08869 31.8647L8.10689 31.7434C8.1178 31.677 8.13357 31.424 8.14328 31.1825C8.15976 30.7384 8.12478 30.2938 8.03895 29.8569C8.0244 29.7974 7.9783 29.5467 7.93584 29.304C7.89339 29.0613 7.84972 28.8369 7.84972 28.8072C7.83759 28.7534 7.84972 28.7511 8.2561 28.7465C9.02862 28.7464 9.79514 28.6185 10.5209 28.3687C10.6932 28.3001 10.8521 28.2428 10.8642 28.2417C10.8796 28.3672 10.8796 28.4939 10.8642 28.6194L10.8618 28.6229ZM26.4862 28.3653C27.1613 28.6012 27.8746 28.7252 28.5945 28.7316C29.1101 28.7476 29.1452 28.7511 29.1452 28.8014C29.1452 28.8518 29.0785 29.2467 28.973 29.8317C28.8805 30.2686 28.8439 30.7144 28.8638 31.1596C28.8747 31.4034 28.8905 31.6621 28.9014 31.732L28.9208 31.867L28.8298 31.8224C28.7801 31.7972 28.5545 31.7079 28.3288 31.6255C27.8173 31.4457 27.2845 31.3254 26.7421 31.2672C26.3455 31.218 25.8445 31.1527 25.7596 31.1287C25.6989 31.1161 25.6989 31.1138 25.7814 30.8791C26.0924 30.0768 26.2145 29.2201 26.1392 28.3687C26.1283 28.3251 26.1283 28.2796 26.1392 28.2359C26.1477 28.2359 26.3067 28.292 26.4826 28.3584L26.4862 28.3653ZM14.8965 28.9674C15.1949 29.0579 15.4436 29.1357 15.4484 29.1414C15.2129 29.4425 14.9307 29.7083 14.6114 29.9301L14.461 30.0446L14.3748 29.6909C14.3 29.4037 14.2501 29.1112 14.2256 28.8163C14.2256 28.7763 14.239 28.7705 14.2911 28.7866L14.8977 28.9686L14.8965 28.9674ZM22.7475 29.0659C22.7248 29.3916 22.6579 29.7132 22.5485 30.0229C22.2701 29.8672 22.0206 29.6696 21.8098 29.4379C21.7164 29.3514 21.6301 29.2584 21.5514 29.1597C21.6753 29.1008 21.8054 29.0544 21.9396 29.0212C22.1519 28.9583 22.4248 28.8758 22.5328 28.8392L22.7499 28.7705C22.7571 28.8689 22.7571 28.9675 22.7499 29.0659H22.7475ZM16.9247 29.3772C17.1083 29.4147 17.2943 29.4404 17.4815 29.4539L17.7872 29.4734L17.6732 29.7172C17.4507 30.1618 17.161 30.5737 16.8131 30.9398C16.4566 31.3011 16.0483 31.6136 15.6001 31.8682C15.3706 31.6443 15.1673 31.398 14.9935 31.1333C14.9838 31.1172 15.0566 31.0486 15.1573 30.9787C15.5266 30.6848 15.8661 30.3591 16.1714 30.0057C16.3193 29.8101 16.4414 29.5983 16.5353 29.375C16.5572 29.312 16.6105 29.312 16.915 29.3818L16.9247 29.3772ZM20.4669 29.4688C20.5791 29.7013 20.7258 29.9175 20.9024 30.111C21.1927 30.4283 21.5135 30.7195 21.8607 30.981C21.9183 31.0116 21.9707 31.0502 22.016 31.0955C21.8436 31.3739 21.6359 31.6315 21.3973 31.8624C20.9373 31.5894 20.5159 31.2625 20.143 30.8894C19.843 30.5577 19.586 30.1934 19.3776 29.8042C19.1968 29.4379 19.1835 29.4688 19.5292 29.4459C19.7094 29.4335 19.8885 29.4098 20.0654 29.375C20.3832 29.304 20.4002 29.3074 20.4657 29.4642L20.4669 29.4688ZM18.6898 30.8562C18.9728 31.2577 19.3046 31.6265 19.6784 31.9552C19.9539 32.1882 20.2431 32.4064 20.5445 32.6088C20.5943 32.6363 20.6307 32.6661 20.6307 32.6775C20.6307 32.689 20.2959 33.0106 19.8943 33.3952C19.5242 33.7118 19.1948 34.0684 18.913 34.4576C18.7735 34.6579 18.6255 34.88 18.5818 34.9555L18.5042 35.0906L18.4374 34.9681C18.401 34.9006 18.2482 34.6693 18.0941 34.453C17.8112 34.0519 17.4721 33.6888 17.0861 33.3735C16.6845 32.9969 16.3582 32.6867 16.3582 32.6741C16.3986 32.6374 16.4439 32.6058 16.4929 32.5802C16.5657 32.5367 16.7015 32.4428 16.7913 32.3753C17.438 31.9281 17.9843 31.3643 18.3986 30.7166C18.4252 30.6645 18.4591 30.616 18.4993 30.5723C18.5694 30.6629 18.633 30.7577 18.6898 30.8562V30.8562ZM14.1407 31.9105C14.2511 32.0468 14.3991 32.2242 14.4695 32.3032L14.598 32.4463L14.4767 32.5195C14.3554 32.5905 14.1808 32.7096 13.6276 33.0999C13.4553 33.2224 13.3692 33.2693 13.3571 33.2453C13.3449 33.2212 13.2358 32.9213 13.1145 32.5676L12.884 31.9254L13.0477 31.8796L13.5633 31.7308C13.6828 31.6888 13.8069 31.6596 13.9333 31.6438C13.943 31.653 14.0413 31.7732 14.1504 31.9094L14.1407 31.9105ZM23.6027 31.7755C23.753 31.8208 23.9057 31.8591 24.06 31.8899C24.0976 31.8899 24.06 32.0204 23.8732 32.5596C23.7446 32.9282 23.6306 33.235 23.6306 33.2464C23.319 33.0659 23.0177 32.8699 22.7281 32.6592C22.5995 32.571 22.4758 32.4909 22.4503 32.4772C22.4248 32.4634 22.4078 32.4474 22.4503 32.4005C23.0435 31.6495 23.0738 31.6163 23.1381 31.6358L23.6088 31.7743L23.6027 31.7755ZM7.86064 32.4486C7.85467 32.4564 7.84686 32.4629 7.83782 32.4675C7.82877 32.472 7.81872 32.4746 7.80847 32.4749C7.78663 32.4749 7.79027 32.4646 7.81939 32.4486C7.87519 32.4142 7.8849 32.4142 7.86185 32.4486H7.86064Z" stroke="url(#paint0_linear_503_98)" stroke-width="0.40678" stroke-miterlimit="10"/>
</g>
<defs>
<linearGradient id="paint0_linear_503_98" x1="18.5048" y1="0.600708" x2="18.5048" y2="36.0968" gradientUnits="userSpaceOnUse">
<stop stop-color="#DF98FA"/>
<stop offset="1" stop-color="#9055FF"/>
</linearGradient>
<clipPath id="clip0_503_98">
<rect width="37" height="37" fill="white"/>
</clipPath>
</defs>
</svg>
