<svg width="25" height="16" viewBox="0 0 25 16" fill="none" xmlns="http://www.w3.org/2000/svg">
<path d="M6.05417 0.0248213C4.6087 0.171257 3.34747 1.0168 2.36021 2.50006C1.14149 4.32814 0.357348 6.60025 0.0597528 9.16052C-0.029998 9.94465 -0.0158268 12.0325 0.0833715 12.845C0.253426 14.2055 0.489612 14.914 0.933643 15.4053C1.47687 15.9958 2.41689 16.1705 3.15852 15.821C3.81039 15.5139 5.00077 14.4842 6.09196 13.2891C7.24455 12.0278 7.27761 11.99 7.5941 11.8483L7.88697 11.7113H12.0675H16.248L16.555 11.8578C16.8054 11.9759 16.9424 12.0892 17.2872 12.4671C19.1861 14.5503 20.1734 15.4431 21.0284 15.8351C21.326 15.9721 21.4157 15.991 21.7606 15.991C23.0454 15.991 23.7067 15.188 23.9902 13.2938C24.2311 11.6499 24.2075 9.7935 23.9193 8.07406C23.4233 5.08866 21.9637 2.16467 20.3718 0.950673C19.5026 0.289351 18.6854 0.0106506 17.6179 0.0106506C16.4275 0.0106506 15.256 0.397996 14.0325 1.19631C13.8341 1.32385 13.5318 1.47973 13.3523 1.54114C13.0595 1.64034 12.9603 1.64979 12.0675 1.64979C11.1747 1.64979 11.0755 1.64034 10.7826 1.54114C10.6031 1.47973 10.3055 1.32857 10.1213 1.20575C9.06318 0.516089 7.96728 0.100402 7.06032 0.0389929C6.8383 0.0248213 6.60684 0.0106506 6.54071 0.00120354C6.47458 -0.00352097 6.25729 0.00592709 6.05417 0.0248213ZM17.4289 2.87795C18.0052 3.21334 18.2367 3.99275 17.9343 4.58794C17.7218 4.99891 17.2069 5.31067 16.7392 5.31067C16.2763 5.31067 15.785 4.97529 15.5725 4.51236C15.4733 4.2998 15.4591 4.21005 15.478 3.9219C15.5016 3.55817 15.5772 3.37395 15.8087 3.11414C16.1866 2.67956 16.914 2.57091 17.4289 2.87795ZM7.29651 3.69516L7.55631 3.78019L7.57048 4.59267L7.57993 5.40515H8.35935H9.13876L9.2663 5.65078C9.44108 5.98617 9.45053 6.43965 9.2852 6.83172L9.17655 7.10569H8.331H7.48546V7.91345V8.71648L7.26344 8.82041C6.92806 8.97629 6.31397 8.96684 6.03527 8.81096L5.83215 8.69287V7.89928V7.10569H5.03856H4.24498L4.1694 6.94981C3.971 6.53412 3.96628 6.01923 4.1505 5.5752L4.22136 5.40515H5.04801H5.87939V4.5785C5.87939 4.12502 5.88411 3.75184 5.89356 3.75184C5.89828 3.75184 5.98803 3.71878 6.09196 3.68099C6.35176 3.58651 6.97529 3.59596 7.29651 3.69516ZM20.7072 4.82413C21.4394 5.27761 21.5433 6.27904 20.9197 6.88368C20.7024 7.09152 20.3198 7.24741 20.027 7.24741C19.5688 7.24741 19.0633 6.92619 18.846 6.49161C18.7232 6.25542 18.6996 5.79722 18.7941 5.51852C19.0539 4.7391 20.0081 4.39427 20.7072 4.82413ZM17.3392 6.43492C17.7737 6.65694 18.0194 7.03956 18.0572 7.545C18.0761 7.83315 18.0666 7.88983 17.9249 8.17326C17.6698 8.69287 17.2258 8.9385 16.6259 8.89126C15.9409 8.83458 15.4638 8.29135 15.4733 7.58279C15.478 7.0679 15.7236 6.68056 16.1818 6.44909C16.4558 6.30738 16.5172 6.29793 16.8148 6.31683C17.0274 6.32628 17.2163 6.37352 17.3392 6.43492Z" fill="url(#paint0_linear_290_208)"/>
<defs>
<linearGradient id="paint0_linear_290_208" x1="11.5022" y1="-2.58795" x2="11.5022" y2="18.6912" gradientUnits="userSpaceOnUse">
<stop stop-color="#DF98FA"/>
<stop offset="1" stop-color="#9055FF"/>
</linearGradient>
</defs>
</svg>
