<svg width="56" height="65" viewBox="0 0 56 65" fill="none" xmlns="http://www.w3.org/2000/svg">
<path d="M7.25789 0.0873718C4.05878 0.481979 1.29655 2.79323 0.310046 5.93596L0 6.92247V32.0784C0 56.0788 0.014093 57.2767 0.253674 58.0659C0.958323 60.349 2.6072 62.3361 4.58022 63.2521C6.56733 64.1964 4.89027 64.14 30.5818 64.14H53.9761L54.5821 63.7877C55.6109 63.1958 56.1746 61.9274 55.8787 60.8422C55.7237 60.2362 55.0754 59.3906 54.5539 59.0947C54.3285 58.9679 48.8181 58.9115 30.8495 58.8551L7.4411 58.7846L6.75054 58.3619C5.60901 57.6431 5.08757 56.3466 5.43989 55.0782C5.66538 54.2608 6.59552 53.3025 7.34244 53.0911C7.72296 52.9783 14.9949 52.9361 30.8636 52.9361C52.8487 52.9361 53.8634 52.922 54.3989 52.6683C55.1177 52.3442 55.6814 51.6818 55.8787 50.963C55.9773 50.5825 56.0196 43.3528 55.9914 27.9633C55.9492 6.65471 55.9351 5.47089 55.6955 4.73806C54.9767 2.58183 53.4547 1.0457 51.3266 0.312862L50.4529 0.0169067L29.3134 0.00281525C17.6867 -0.0112762 7.76523 0.0310059 7.25789 0.0873718ZM10.6402 26.4413V47.5807H9.13225C7.77933 47.5807 6.24319 47.7921 5.52445 48.074C5.29896 48.1726 5.28487 47.2143 5.31306 27.8365L5.35533 7.48619L5.73584 6.82382C6.14454 6.13326 6.84919 5.61182 7.59612 5.44271C7.8357 5.37224 8.62491 5.32996 9.34365 5.31587L10.6402 5.30178V26.4413ZM29.6516 17.915C29.9617 18.0277 32.1743 19.3666 34.5419 20.8886C38.2906 23.2985 38.9107 23.7495 39.2771 24.3132C40.3341 25.9762 40.1086 28.0056 38.7275 29.2739C38.2202 29.7531 30.4549 34.7279 29.8067 35.0098C28.4819 35.5594 26.5089 35.038 25.5083 33.8683C24.6064 32.8254 24.5782 32.5153 24.6204 26.1312C24.6627 19.7894 24.6345 20.0571 25.7056 18.9297C26.7626 17.8023 28.2564 17.4217 29.6516 17.915Z" fill="url(#paint0_linear_574_10131)"/>
<defs>
<linearGradient id="paint0_linear_574_10131" x1="29.6481" y1="-0.369873" x2="30.0709" y2="64.4755" gradientUnits="userSpaceOnUse">
<stop stop-color="#DF98FA"/>
<stop offset="1" stop-color="#9055FF"/>
</linearGradient>
</defs>
</svg>
