<svg width="18" height="18" viewBox="0 0 18 18" fill="none" xmlns="http://www.w3.org/2000/svg">
<path d="M9.61924 0.253021C11.3267 0.41881 12.9028 1.04743 14.2854 2.11124C14.9594 2.62933 15.8339 3.60334 16.3385 4.39775C16.5562 4.73969 16.9814 5.61008 17.1335 6.02455C17.3028 6.48738 17.486 7.19889 17.5759 7.74806C17.683 8.42158 17.683 9.69954 17.5759 10.3731C17.4204 11.3263 17.1749 12.0931 16.7567 12.9462C16.3005 13.8753 15.8269 14.535 15.0665 15.2984C14.3027 16.0582 13.6425 16.5314 12.7127 16.9873C11.859 17.4053 11.0917 17.6505 10.1377 17.8059C9.4637 17.913 8.18483 17.913 7.51083 17.8059C6.55686 17.6505 5.78953 17.4053 4.9358 16.9873C4.00603 16.5314 3.34585 16.0582 2.58199 15.2984C1.82158 14.535 1.34805 13.8753 0.891804 12.9462C0.587639 12.328 0.435556 11.9239 0.26965 11.3022C0.0518951 10.4732 4.95911e-05 10.0208 4.95911e-05 9.06056C4.95911e-05 8.10036 0.0518951 7.6479 0.26965 6.81895C0.435556 6.19725 0.587639 5.79314 0.891804 5.17488C1.34805 4.24577 1.82158 3.58607 2.58199 2.82275C3.34585 2.06288 4.00603 1.58969 4.9358 1.13378C5.78608 0.715849 6.57414 0.467165 7.49354 0.3221C8.00164 0.242661 9.13534 0.204666 9.61924 0.253021ZM11.6862 5.85531C10.9983 6.17307 10.829 7.09182 11.3647 7.62718C11.7864 8.0451 12.4984 8.0451 12.9201 7.62718C13.1897 7.35777 13.3038 6.92257 13.2035 6.57027C13.0065 5.90021 12.3083 5.57208 11.6862 5.85531ZM5.04986 5.85531C4.80791 5.96583 4.62127 6.15234 4.50721 6.39757C4.32056 6.79478 4.41388 7.30941 4.72842 7.62718C5.1501 8.0451 5.86212 8.0451 6.2838 7.62718C6.5534 7.35777 6.66746 6.92257 6.56723 6.57027C6.37021 5.90021 5.67202 5.57208 5.04986 5.85531ZM8.26778 11.3056C7.04767 11.43 5.88631 11.9653 5.0153 12.8012C4.78026 13.0257 4.71113 13.1984 4.77335 13.4091C4.85285 13.675 5.05332 13.827 5.31601 13.827C5.47846 13.827 5.61671 13.751 5.83101 13.5507C6.69166 12.7528 7.98781 12.328 9.22866 12.4454C10.2103 12.5352 11.1608 12.9359 11.7795 13.5161C11.8555 13.5887 11.98 13.6888 12.0525 13.7372C12.4846 14.0273 13.0411 13.5783 12.8544 13.0913C12.7957 12.9393 12.5468 12.6941 12.1251 12.3694C11.0536 11.5543 9.65034 11.1675 8.26778 11.3056Z" fill="url(#paint0_linear_559_98)"/>
<defs>
<linearGradient id="paint0_linear_559_98" x1="-26.8438" y1="-26.2494" x2="50.6056" y2="44.755" gradientUnits="userSpaceOnUse">
<stop stop-color="#FA7CBB"/>
<stop offset="1" stop-color="#F14658"/>
</linearGradient>
</defs>
</svg>
