<svg width="12" height="12" viewBox="0 0 12 12" fill="none" xmlns="http://www.w3.org/2000/svg">
<path d="M0.266275 0.057703C-0.0103299 0.196005 -0.0876855 0.561686 0.111564 0.798441C0.245178 0.95784 0.106875 0.946119 2.31971 0.960184L4.32158 0.971905L2.34315 2.91517C0.010767 5.20302 0.0834343 5.13269 0.0342081 5.24287C-0.0572121 5.46321 0.0459286 5.74685 0.259242 5.85234L0.362383 5.90625H2.99247C4.60756 5.90625 5.646 5.89687 5.68351 5.88281C5.71632 5.87109 5.7843 5.82186 5.83822 5.77498C6.09607 5.54291 6.01637 5.12566 5.68585 4.97798C5.66006 4.96626 4.74821 4.9522 3.6582 4.94517L1.67743 4.93345L3.78947 2.85422C5.17483 1.4923 5.91557 0.746871 5.9437 0.688268C6.02809 0.507771 5.98121 0.259296 5.83353 0.125682C5.69288 -0.00558805 5.77493 -0.000899792 2.97137 -0.000899792H0.385824L0.266275 0.057703Z" fill="#FA7CBB"/>
<path d="M7.38301 3.47003C7.04546 3.64818 7.02436 4.09825 7.34082 4.30688L7.44161 4.37251L8.69806 4.38423L9.9545 4.39595L8.57851 5.7485C7.70181 6.61348 7.18845 7.13387 7.16267 7.19013C7.04077 7.44564 7.18611 7.7785 7.45099 7.85351C7.50725 7.86758 8.19173 7.87695 9.40363 7.87695H11.2695L11.3727 7.82304C11.4289 7.79257 11.5086 7.72224 11.5461 7.66833C11.6094 7.57925 11.6165 7.54878 11.6165 7.39641C11.6165 7.24404 11.6094 7.21357 11.5461 7.12449C11.5086 7.07058 11.4289 7.00026 11.3727 6.96978L11.2695 6.91587H10.0248H8.7801L9.27236 6.4283C9.54428 6.16107 10.1678 5.54457 10.6601 5.06168C11.3 4.43112 11.5649 4.15686 11.593 4.09122C11.6868 3.86619 11.586 3.58489 11.3703 3.47472L11.2672 3.42315H9.36613C7.5471 3.42549 7.46506 3.42784 7.38301 3.47003Z" fill="#FA7CBB"/>
<path d="M2.63852 8.29582C2.45333 8.37786 2.35488 8.55836 2.37363 8.78105C2.3877 8.94982 2.47209 9.07171 2.62914 9.15141L2.75338 9.21236H3.6207L4.49036 9.21471L3.46599 10.2274C2.744 10.94 2.42989 11.2658 2.40411 11.3267C2.32675 11.519 2.38535 11.7604 2.53772 11.8823C2.6854 11.9995 2.67602 11.9995 4.27939 11.9995C5.69055 12.0018 5.78431 11.9972 5.87339 11.9573C6.04685 11.8776 6.1664 11.6971 6.1664 11.5143C6.1664 11.383 6.0656 11.2002 5.95074 11.1205L5.85463 11.0525L4.94278 11.0408L4.03092 11.029L5.05529 10.0211C6.09608 8.9967 6.16406 8.91935 6.1664 8.75526C6.1664 8.56539 6.05388 8.38489 5.88276 8.29582C5.79603 8.25362 5.73274 8.25128 4.26298 8.25128C2.82839 8.25128 2.72525 8.25597 2.63852 8.29582Z" fill="#FA7CBB"/>
</svg>
