<svg width="12" height="12" viewBox="0 0 12 12" fill="none" xmlns="http://www.w3.org/2000/svg">
<path d="M1.45936 0.0198145C0.731089 0.146838 0.248401 0.578717 0.0508093 1.28722C0.00564548 1.45094 0 1.59208 0 2.55746C0 3.52283 0.00564548 3.66397 0.0508093 3.82769C0.242755 4.51644 0.688748 4.93138 1.38879 5.07252C1.64001 5.12615 1.7501 5.12897 2.65337 5.11768C3.75424 5.10639 3.82199 5.09792 4.21999 4.90597C4.62647 4.70838 4.92285 4.32167 5.05835 3.81357C5.10351 3.63856 5.10916 3.49461 5.10916 2.54334C5.10916 1.5074 5.10633 1.46223 5.04423 1.24488C4.95108 0.92309 4.82688 0.70574 4.61518 0.496857C4.40912 0.287974 4.19177 0.163774 3.88126 0.0706239C3.68085 0.0113463 3.61593 0.00570059 2.63926 5.53131e-05C2.07189 -0.00276756 1.54121 0.00570059 1.45936 0.0198145Z" fill="url(#paint0_linear_574_8026)"/>
<path d="M8.41182 0.00852394C7.60169 0.129901 7.08513 0.609767 6.92706 1.39167C6.87342 1.64289 6.8706 1.75298 6.88189 2.65625C6.89318 3.75712 6.90165 3.82487 7.0936 4.22287C7.23191 4.51079 7.48878 4.76766 7.7767 4.90597C8.17471 5.09792 8.24245 5.10639 9.34332 5.11768C10.2466 5.12897 10.3567 5.12615 10.6079 5.07252C11.3079 4.93138 11.7539 4.51644 11.9459 3.82769C11.991 3.66397 11.9967 3.52283 11.9967 2.55746C11.9967 1.59208 11.991 1.45094 11.9459 1.28722C11.7652 0.640817 11.3672 0.242811 10.7265 0.0565104C10.5825 0.0141692 10.4075 0.00570107 9.5268 0.00287819C8.95943 -0.00276709 8.4598 5.57899e-05 8.41182 0.00852394Z" fill="url(#paint1_linear_574_8026)"/>
<path d="M1.39726 6.91907C0.700039 7.06021 0.259692 7.46104 0.064923 8.13285C0.00282274 8.3502 0 8.39536 0 9.44542C0 10.4108 0.00564548 10.5519 0.0508093 10.7157C0.231465 11.3621 0.637939 11.7657 1.28435 11.9492C1.44806 11.9944 1.5892 12 2.55458 12C3.51995 12 3.66109 11.9944 3.82481 11.9492C4.51356 11.7572 4.9285 11.3113 5.06964 10.6112C5.12327 10.3572 5.12609 10.2499 5.1148 9.33251C5.10633 8.39254 5.10069 8.31633 5.04141 8.11874C4.8918 7.62193 4.62082 7.28885 4.2087 7.08844C3.80223 6.89367 3.66956 6.87673 2.54893 6.87955C1.87148 6.88238 1.52428 6.89367 1.39726 6.91907Z" fill="url(#paint2_linear_574_8026)"/>
<path d="M8.27066 6.91907C7.70046 7.04609 7.29964 7.34248 7.08511 7.7913C6.90163 8.17801 6.89316 8.23164 6.88187 9.30429C6.86776 10.3572 6.88187 10.5519 7.00607 10.8991C7.15568 11.3197 7.42384 11.6161 7.8162 11.8052C8.18598 11.9831 8.32147 12 9.44209 12C10.303 12 10.4752 11.9915 10.6559 11.9492C11.3418 11.7883 11.7596 11.3846 11.943 10.6987C11.991 10.5237 11.9967 10.391 11.9967 9.43131C11.9967 8.39536 11.9938 8.3502 11.9317 8.13285C11.7539 7.51749 11.3531 7.12231 10.7264 6.94165C10.5825 6.89931 10.4018 6.89367 9.49855 6.88802C8.69407 6.88238 8.4005 6.89084 8.27066 6.91907Z" fill="url(#paint3_linear_574_8026)"/>
<defs>
<linearGradient id="paint0_linear_574_8026" x1="2.55458" y1="5.12305" x2="2.55458" y2="-0.00048542" gradientUnits="userSpaceOnUse">
<stop stop-color="#F06966"/>
<stop offset="1" stop-color="#FAD6A6"/>
</linearGradient>
<linearGradient id="paint1_linear_574_8026" x1="9.43661" y1="5.12305" x2="9.43661" y2="-5.8651e-05" gradientUnits="userSpaceOnUse">
<stop stop-color="#F06966"/>
<stop offset="1" stop-color="#FAD6A6"/>
</linearGradient>
<linearGradient id="paint2_linear_574_8026" x1="2.56008" y1="12" x2="2.56008" y2="6.87929" gradientUnits="userSpaceOnUse">
<stop stop-color="#F06966"/>
<stop offset="1" stop-color="#FAD6A6"/>
</linearGradient>
<linearGradient id="paint3_linear_574_8026" x1="9.43706" y1="12" x2="9.43706" y2="6.88637" gradientUnits="userSpaceOnUse">
<stop stop-color="#F06966"/>
<stop offset="1" stop-color="#FAD6A6"/>
</linearGradient>
</defs>
</svg>
